<svg class="shree-svg" xmlns="http://www.w3.org/2000/svg" width="170.667" height="170.667" version="1.0" viewBox="0 0 128 128"><path d="M80.2 10.1C74 13.2 68 22 68 28c0 1.7.6 2 4.9 2 4.6 0 5-.2 5.6-2.8 2.4-10.8 18.2-12.6 23-2.6.9 1.9 1.5 6 1.5 9.8V41H58v10h10v35.3l-11.8-.5c-9.1-.4-12.8-1-16.6-2.6L34.8 81l6-6.5C49 65.8 51 57.8 47.4 49.2c-7.2-17.3-31.6-17.7-39.5-.7-4 8.7-1.9 17.3 6.5 26.2 5.8 6.3 5.9 6.4 4 8.4-3 3.3-9.5 6.7-14.2 7.5l-4.2.7v10l4.7-.7c6.3-.8 14.2-4.6 19.1-9.1l4.1-3.7 3 2.1c5.3 3.8 11.2 5.2 24.2 5.8l12.7.6.4 7.3c.5 11.6 5.2 16 17.7 17.1l7.1.6v-10.1l-5.9-.4c-8-.6-9.1-1.7-9.1-8.9V96h24.8l.4 7.4c.5 11.8 5.2 16.2 17.7 17.3l7.1.6v-10.1l-5.9-.4c-8-.6-9.1-1.7-9.1-8.9V96h15V86h-15V51h10V41h-9.8l-.4-8.8c-.3-7.4-.9-9.6-3.2-13.5-4.1-7.1-9.3-10.1-18-10.5-5.7-.2-7.9.1-11.4 1.9zM35 48.7c2.2 2 3.3 4 3.7 6.9.6 5-1 8.4-6.9 14.2l-4.4 4.3-5.2-5.5c-5.6-5.9-6.8-8.8-5.8-14 1.5-8.1 12.3-11.5 18.6-5.9zm68 19.8V86H78V51h25v17.5z"/></svg>