<svg class="breath-svg" xmlns="http://www.w3.org/2000/svg" width="170.667" height="170.667" version="1.0" viewBox="0 0 128 128"><path d="M56.5 3.9C49.3 7.1 44 15.2 44 23c0 5.5 2.3 10.4 6.9 14.9 3.8 3.7 4.6 5.1 4 6.6-.4 1.1-.8 4.3-.8 7.1-.1 3.7-1 6.7-3.2 10.9-2.9 5.5-3 5.8-1.2 7.7 1 1.1 2.8 2.4 4.1 2.9 1.2.5 2.2 1.7 2.2 2.7 0 2.8 2.1 4.2 6.5 4.2l4 .1-2.4 1.9c-1.3 1.1-2.9 2-3.6 2-1.5 0-2.5 2.2-2.5 5.2 0 1.1 1.6 3.6 3.5 5.5 3.4 3.4 3.8 3.5 9 3 5.3-.5 5.5-.5 5.5 1.9 0 4.4-1.9 6.3-10.8 10.8-10 5-12.1 6.9-12.9 12l-.6 3.6h74.6l-.6-4c-.7-5.6-3.8-9.3-11.2-13.4-8.5-4.8-10.5-7.5-10.5-14.1 0-5.3.1-5.4 7.1-12.1 5.1-5 8-8.9 10.7-14.3 3.4-7 3.7-8.1 3.7-16.5 0-14.3-4.8-24.4-15.5-33-7.5-6-13.7-7.8-28.8-8.5-12.5-.6-13.5-.8-15.3-3-1-1.3-1.9-2.9-1.9-3.7 0-1.9-2.7-1.7-7.5.5zm7.2 6.3 3.4 3.3 13.7.6c10.6.5 14.7 1.1 18.2 2.7 19.7 8.8 28.2 30.5 19.3 49.4C115.6 71.9 105 84 102.8 84c-.5 0-1.6-1.6-2.5-3.6-1.7-3.5-1.7-3.7.2-5.3 5.4-4.3 6.8-9.7 4-15-1.5-3.1-3.3-4.1-7-4.1-1.8 0-2.5-.7-3-2.8-1.3-6.3-10.9-14.1-17.2-14.2-2 0-2.2-.4-1.7-3 .9-4-1.3-8.8-4.7-10.5-3.7-2-4.9-1.9-4.9.3 0 1.1 1.1 2.4 2.5 3 4.8 2.2 4.1 9.5-1 10.8C58.6 41.8 48 32.7 48 22.8c0-4.6 3.6-11.3 7.3-13.7 4.2-2.7 4.5-2.7 8.4 1.1zm17.1 34c5.2 1.6 8.9 6 10.3 12.6.7 3.1 1.3 5.8 1.4 6 .1.1 1.7-.5 3.4-1.5 3.1-1.7 3.2-1.7 4.6.1 2.6 3.4 1.8 6.6-2.6 10.6l-4.1 3.7 2.8 5.4c2.1 3.9 3 7.5 3.4 12.9.4 4.1.8 8.1 1.1 8.9.6 2-7.6 6-13.6 6.7-7.4.8-8.7-.5-7.8-8.1.7-5.2 1.1-6 3.3-6.5 1.6-.4 2.6-1.4 2.8-2.8.2-1.2.2-2.2 0-2.2s-3.5.9-7.3 2c-8.8 2.5-12 2.5-14.5 0-2.4-2.4-2.6-5-.5-5 2.7 0 6.5-4.7 6.5-8 0-2.9-.1-3-5-3s-5-.1-5-3c0-2.5-.4-3-2.4-3-4.3 0-4.9-2.2-2.1-7.5C57.3 59 58 56.2 58 52.1c0-7.4.9-8.6 6.2-8.3 2.4.1 5-.2 5.8-.7 1.5-1 5.1-.6 10.8 1.1zm36 70.4c.2.1-1.4 0-3.7-.3-6.2-.8-10.9.5-15 4.3l-3.8 3.4H75.1c-18.4 0-19.1-.1-18.2-1.9.6-1 4.7-3.8 9.2-6.1l8.2-4.3 4.2 2.3c5.4 2.9 11.9 2.4 20.1-1.8l5.8-2.9 6 3.5c3.4 1.9 6.2 3.6 6.4 3.8zm0 5.1 3.7 1.7-5.2.4c-2.9.2-7.7.2-10.5 0l-5.3-.3 3.5-1.7c4.5-2.2 9.1-2.2 13.8-.1z"/>
  <path d="M62.7 54.6c-1 1 2.1 5 4.9 6.2 3.1 1.5 5.6 1.5 8.8.1 3.8-1.8 2.2-4.2-2.3-3.4-2.9.5-4.3.1-6.3-1.4-2.7-2.2-4-2.5-5.1-1.5z"/>
  <path class="breath-svg__breath" d="M9.2 54c-7 4.3-9.2 12.8-4.9 19.1 4.1 6.1 7 6.9 26.5 6.9 16.5 0 17.2-.1 17.2-2s-.7-2-17-2c-11 0-17.8-.4-19.5-1.2C8.6 73.5 6 69.3 6 66c0-5.8 6.1-10.9 11.5-9.6 5.9 1.5 5.5 10-.5 11.2-2.1.5-3 1.2-3 2.5 0 4 8.7 1.1 10.8-3.6 4.5-9.9-6-18.3-15.6-12.5zM19.1 85.4c-8.7 4.8-5 18.6 4.9 18.6 2.6 0 6-3.4 6-6 0-1.1-.9-2.9-2-4s-2.9-2-4-2c-2.7 0-2.7 3.6.1 4.3 2.4.6 2.1 3-.4 3.5-2.1.4-5.7-3.3-5.7-5.8 0-1.1.9-2.9 2-4 1.8-1.8 3.3-2 15-2 12.3 0 13-.1 13-2s-.7-2-13.2-2c-9.1.1-14.1.5-15.7 1.4z"/>
</svg>