<svg xmlns="http://www.w3.org/2000/svg" width="750.667" height="178.667" version="1.0" viewBox="0 0 563 134"><desc>SereneGrove - Logo</desc><path d="M53 7.3c-12.6 4.6-16.4 7-24.7 15.2-6.3 6.2-9 9.9-11.5 15.1-1.7 3.8-3.7 7.3-4.4 7.9-1.6 1.3-3.4 9.9-4.1 19.8-.4 5.8-.1 9.5 1.2 14.5 4.6 17.3 18.1 34.9 32.1 41.7 8.9 4.4 21 7.5 29 7.5 10.7 0 27.2-5.8 35.2-12.3 14.4-11.8 21.3-25.4 21.1-41.6l-.1-8.6-1.3 7c-2 11.2-8.1 25.3-11.4 26.2-1 .2-3.4 2.3-5.3 4.7-2.2 2.6-6.6 5.8-11.9 8.6l-8.4 4.5H75c-11.4-.1-14.7-.4-21-2.4-6.5-2.1-8.4-3.3-14.3-9-7.6-7.3-11.6-12.6-15.8-21-3.7-7.3-3.7-5.3.2 5.4 2.8 7.7 3.7 9 8.3 12.6 2.8 2.2 7 5.5 9.3 7.3 2.3 1.9 4.8 3.6 5.5 3.9.7.2 1.1.7.8 1-2.6 2.7-24.7-16.8-28.9-25.6-1.3-2.6-2.6-4.5-3.1-4.2-.4.3-1.3-.8-2-2.4-.9-2.4-.9-3.6.3-6.3 1.9-4.2 4-16.8 3.8-22.8 0-3.7.4-5.2 2.3-6.9 1.3-1.2 2.3-3.4 2.4-5.1.2-6 3.4-10.7 12.2-17.6 9.2-7.2 16.2-10.8 19.5-10 1.2.3 3.8-.4 5.9-1.5 7-3.7 26.9-2.8 33.3 1.5 3.9 2.7 5.3 3.2 5.3 1.8 0-1.4-9.4-6.8-15-8.6-3-1-9.8-2-15-2.2-8.3-.4-10.3-.2-16 1.9zM13.7 51.2c-.3.8-.6.5-.6-.6-.1-1.1.2-1.7.5-1.3.3.3.4 1.2.1 1.9zm-.4 25.3-.6 2-.8-2c-.4-1.1-.8-2.7-.8-3.5 0-.9.3-.7.8.5.4 1.1.7-3 .5-9l-.2-11L13 64c.4 5.8.6 11.4.3 12.5zm40.7 41c1.6.9 1.9 1.4.9 1.5-.8 0-2.4-.7-3.5-1.5-2.4-1.8-.7-1.9 2.6 0zm6.7 2.1c-.3.3-1.2.4-1.9.1-.8-.3-.5-.6.6-.6 1.1-.1 1.7.2 1.3.5z"/><path d="M61.5 16c-3.3 1.6-3.5 1.8-1.1 1.3 1.6-.3 7.5-.6 13-.7 8.4 0 11.1.4 15.8 2.3 3.2 1.3 5.5 2.7 5.3 3.2-.3.4.9 1.6 2.7 2.5 1.8.9 7 5.5 11.6 10.2 4.5 4.6 8.2 8 8.2 7.5 0-1.9-3-8.2-4.2-8.9-.9-.5-.9-.2.1.9.8 1 1.2 2 .9 2.2-.3.3-3.6-2.4-7.3-6-3.8-3.6-7.5-6.5-8.4-6.5-1.3 0-1.3-.2-.2-.9 1-.6-.7-1.9-6-4.5-7.4-3.6-16-6-12.9-3.6 1.2.9.7 1-2.5.6-2.2-.3-5.6-.8-7.5-1.1-2.3-.3-4.9.2-7.5 1.5zM44.2 21.1c-4.4 1.6-11.8 7.9-9.3 7.9 1.1 0 1 .5-.4 2-1 1.1-2.2 1.7-2.6 1.4-.5-.3-.6.3-.2 1.2.4 1.2.3 1.5-.5 1-.7-.4-2.3.6-4 2.5-3.5 4.1-4.5 5.9-3.4 5.9.5 0 2.2-1.8 3.6-4.1 1.5-2.2 3-3.8 3.3-3.5.3.3 0 1.4-.7 2.3-.8 1 .6-.3 3.1-2.8 6-6.3 13.8-12.4 17.9-14.2l3.5-1.4-3.1.1c-1.6.1-4.9.8-7.2 1.7zM109.5 30c1 1.1 2 2 2.3 2 .3 0-.3-.9-1.3-2s-2-2-2.3-2c-.3 0 .3.9 1.3 2zM66.7 39.6c-1.3 1.3-.7 5.1.9 6.5 2.3 1.9 4.9-.1 4.9-3.7 0-2.4-.5-3-2.5-3.2-1.4-.2-2.9 0-3.3.4zm4.3 2.8c0 1.1-1.9 1.5-2.5.6-.3-.5.1-1 .9-1 .9 0 1.6.2 1.6.4zM56.2 51.2c-2.5 2.5-.6 6.8 3 6.8.9 0 2.2-.9 2.8-1.9 1.3-2.5 1.3-2.7-.6-4.5-1.9-1.9-3.6-2-5.2-.4zM60 54c0 .5-.4 1-1 1-.5 0-1-.5-1-1 0-.6.5-1 1-1 .6 0 1 .4 1 1z"/><path d="M65.6 55.4c-1.4 3-2.6 6.2-2.6 7 0 2.9-2 2.7-5.6-.6-3.4-3.2-7.2-5.7-8.5-5.8-2-.1-1.6 9.2.7 17.1.4 1.3-.3 1.4-5.6.5-7.7-1.3-9.1-.2-6.1 4.7 2.6 4.2 9.8 11 13.9 13.1 8.8 4.5 28.3 4.1 36.8-.9 7.2-4.2 15.4-14 13.9-16.5-.8-1.3-5.1-1.3-9.4 0-1.9.5-3.6.8-3.8.6-.2-.1.1-1.6.6-3.2C91.3 67 92 58.6 91 57c-.7-1.1-1.6-.9-4.7 1.2-2.1 1.4-5 3.7-6.5 5.1L77 65.9l-1.1-4.2c-1.6-6-4.7-11.7-6.3-11.7-.8 0-2.6 2.4-4 5.4zm7.4 6c1.1 3.3 2 7.9 2 10.4 0 5-2.4 13.9-4.4 16.8-1.3 1.7-1.5 1.6-3.1-2.1-4.1-9.9-4.1-19.2 0-28.9 2-4.6 2.8-4.1 5.5 3.8zm-16.1 3.4c4.7 4.4 5.1 5.1 5.1 9.5 0 2.5.7 6.7 1.6 9.3.8 2.5 1.3 4.8 1.1 5-.2.3-2.7-2-5.4-4.9-3.2-3.5-5.5-7.3-6.6-10.7-2.3-7.2-3.2-13-1.9-13 .5 0 3.3 2.2 6.1 4.8zm31.6.4c-1 7.5-4.6 14.6-10.1 19.8-3 2.9-4.4 3.8-4 2.5 1.4-3.8 3.6-14 3.6-16.6 0-1.5 1.1-3.5 2.8-5 2.9-2.6 7.4-5.9 8-5.9.2 0 .1 2.4-.3 5.2zM48 77.1c2.2.7 4.3 2.2 5.1 3.6.7 1.3 3.5 4.4 6.2 6.9l4.8 4.4-3.3-.7C53 89.8 44.1 83.8 41 78c-.9-1.7-.7-2 1.1-2 1.2 0 3.9.5 5.9 1.1zm51-.2c0 .5-2.1 3.1-4.7 5.6-4.7 4.7-10 7.6-16 8.8l-3.2.6 4.1-3.7c2.3-2 4.9-5 5.9-6.7 1.9-3.1 6.4-5.3 11.2-5.4 1.5-.1 2.7.3 2.7.8z"/><path d="M70.7 74.2c-.6 4.5-.2 6.2 1.4 5.3 1.1-.8 1.2-9.5 0-9.5-.4 0-1.1 1.9-1.4 4.2zM69.5 82.1c-.4.6-.3 1.5.3 2.1.6.6 1.1.4 1.5-.6.7-1.8-.9-3.1-1.8-1.5zM77.6 51.9c-2.3 2.6-.6 6.1 2.9 6.1 2.9 0 4.5-4.1 2.5-6.5-1.7-2-3.3-1.9-5.4.4zM81 54c0 .5-.4 1-1 1-.5 0-1-.5-1-1 0-.6.5-1 1-1 .6 0 1 .4 1 1zM158.6 51.8c-.4.4-3.4.7-6.6.7-6.9.1-9.6 1.9-10.6 7.3-1 5.3 1.8 9.6 8.2 12.8 2.9 1.4 5.8 3.2 6.4 3.9 1.8 2.2.7 6.6-2.1 8.8-2.3 1.6-3.2 1.8-6 .8-2.1-.7-4.1-2.4-5.2-4.3-1.5-2.5-2-2.9-2.8-1.7-1.3 2.1-1.1 5.5.6 6.9.8.7 4.3 1.4 7.7 1.7 5.8.4 6.6.2 9.6-2.4 7.1-6 4.7-14-5.8-19.3-5.5-2.8-6-3.3-6-6.3 0-4.2 1.5-5.7 5.6-5.7 2.4 0 3.9.8 5.8 3.1 1.4 1.7 2.7 2.7 2.7 2.2 1-5.9.2-10.3-1.5-8.5zM309 52.5c.7.8 1.8 1.5 2.6 1.5 3.2 0 3.9 2.5 3.6 13.3-.2 5.9-.7 10.7-1.2 10.7s-4.4-4.2-8.8-9.3C290.2 51 291.4 52 284.8 52c-3.2 0-5.8.3-5.8.7.1.5 2 1.7 4.3 2.8 4.1 2 4.2 2.1 4.5 7.5.9 13.9-1.3 22.6-5.9 24.2-2.7 1-.3 1.6 7.1 1.9 6.1.3 7.5.1 7.5-1.1 0-.8-1-1.6-2.3-1.8-4-.6-5-3.8-4.9-15 0-5.6.4-10.2.8-10.2.5 0 2.1 1.6 3.6 3.6 3.7 4.9 21.5 24.4 22.2 24.4.3 0 .7-5.3.8-11.8 0-6.4.3-13.7.6-16.2s.6-4.8.6-5.3c.1-.4 1.3-1.2 2.7-1.7 4.1-1.6 2-2.7-5.7-2.8-6.2-.1-7 0-5.9 1.3zM461.1 52c-4.1 1-7.6 3.5-11.4 8.3-2.6 3.1-3 4.4-3 9.9 0 4.7.5 7.2 2.2 9.9 6.2 10.3 20.7 12.6 29.7 4.7 10.1-8.9 9.6-21.7-1.2-30.2-4-3.2-10.2-4.2-16.3-2.6zm7.2 2.4c2.1.7 4.7 2.1 5.7 3.2 3 3 5.9 11.8 5.3 16.1-1 7.7-4.5 11.6-11.5 12.8-8.2 1.5-15.3-7.5-15.3-19.1 0-5.6.4-6.7 3-9.5 4.7-4.9 7-5.6 12.8-3.5zM513.8 51.7c-4.6.4-6.9 2.3-2.9 2.3 1.1 0 2.3.5 2.6 1.1 1.2 1.9-5.2 23.2-6.8 22.6-1.3-.4-6.7-16.5-6.7-19.9 0-2.1.5-2.8 2-2.8 1.1 0 2-.7 2-1.6 0-1.2-1.1-1.5-5.2-1.3-2.9.1-6.5.4-8.1.6l-2.7.5 2.7 2.6c1.9 1.8 3.8 5.8 5.7 11.7 1.6 4.9 3.3 9.9 3.8 11 .5 1.1 1.5 4 2.2 6.5 1.6 5.4 3.7 5.8 4.9 1 .9-3.6 2.7-8.4 5.9-15.7 1-2.3 1.8-4.6 1.8-5.1 0-1.8 4.1-10.2 5-10.3.6-.1 1.5-.2 2.2-.3 2.2-.2 1.9-2.3-.4-3-1.3-.3-2.5-.5-2.8-.4-.3.1-2.6.3-5.2.5zM204 53c0 .5.6 1 1.4 1 3.4 0 4.1 3 3.8 15.9-.3 14.5-.6 15.7-3.2 16.4-1.1.3-2 1.1-2 1.7 0 .9 1.3 1 4.3.6 2.3-.3 5.7-.2 7.5.3 3.4 1 6.2.6 6.2-1 0-.5-.7-.9-1.5-.9s-2.6-.5-4-1.2c-2.4-1.1-2.6-1.5-2.3-7.2.3-5.4.5-6.1 2.5-6.4 2.6-.4 5.9 2.8 10.9 10.6 1.9 2.9 4.4 5.6 5.7 6.1 1.2.4 10.9.6 21.5.3 21-.5 20.1-.2 21.6-6.7l.8-3-3.7 3.8c-3.1 3.2-4.2 3.7-8.3 3.7-7.1 0-9.2-1.9-9.2-8.5 0-3 .4-5.6.9-6 .6-.3 2.8-.2 5.1.1 3.2.5 4.4 1.3 5.1 3.2 1.4 3.6 2 2.3 2.3-4.7.3-6.5-.4-7.6-2.2-3.7-.8 1.7-2.2 2.7-4.7 3.2-5.1.9-6.5-.7-6.5-7.6 0-7.2 1.2-8.4 7.5-7.5 3.4.6 5.1 1.5 7 3.9l2.5 3.1v-3c0-5.4-.6-5.6-15.3-5.8-8.4-.1-13.8.2-13.9.8-.2.5.9 1.1 2.5 1.3 1.5.2 3.2 1.2 3.7 2.3 1.2 2.1.8 24.8-.4 26.7-.4.7-1.8 1.2-3.1 1.2s-2.7.4-3 1c-1.5 2.4-8.2-3.4-14.3-12.4l-2.6-3.8 2.7-2c5.7-4.2 4.2-12.4-2.8-15.4-4-1.6-22.5-2-22.5-.4zm20.2 3.7c4.1 3.6 2 10.4-3.7 12.3-6 2-6.9 1-6.2-6.7.4-3.7 1.2-7 1.9-7.4 1.6-1 5.8-.1 8 1.8zM376.6 53.2c-5 1.4-11.3 7.9-12.2 12.4-2.6 14.1 5.4 23.5 20 23.4 3.6-.1 7.5-.8 9.6-1.8 3.2-1.6 3.5-2.1 3.8-6.5.3-4 .7-5 2.8-5.9 4.1-1.9 2.7-2.7-4.2-2.6l-6.6.1.7 3.1c1.3 6.2 1.1 7.8-1.7 9.9-3.5 2.6-8.1 1.7-13.1-2.6-8.1-7-7.5-20.6 1.3-26.5 2.8-1.9 4.4-2.3 8-1.9 4.4.5 6.5 2.2 9.6 7.3 1.8 3 2.6 1.1 1.8-4.5-.5-4.3-1-5.1-2.3-4.5-.9.3-2 .6-2.6.5-.5 0-3.2-.3-6-.5-2.7-.3-6.7 0-8.9.6zM406 52.4c0 .3 1.4 1.2 3 2.1l3 1.6-.1 12.7c-.1 15.4-.4 16.9-3.5 17.6-4.5 1.2-2.4 2.3 4.4 2.4 3.7 0 7.6.2 8.6.4 3.3.5 2.8-1.9-.6-2.8-3.3-1-3.3-1-3.6-7.7-.3-6.5-.2-6.7 2.1-6.7 2.6 0 6.2 3.4 9.9 9.5 3.7 5.8 6.2 7.7 11.3 8.2 5.3.6 5.9-.7 1.6-3.3-1.7-1-5.3-4.8-8.1-8.6l-5.2-6.7 3.1-2.7c2.8-2.4 3.2-3.2 2.9-7.2-.5-7.2-3.2-8.6-17.4-9-6.3-.2-11.4-.1-11.4.2zm18.5 3c6.5 2.7 5.6 11.7-1.4 13.6-5.4 1.5-5.9 1.3-6.3-2.9-.4-5 .6-10.1 2.4-11.2 1.7-1.1 1.3-1.1 5.3.5zM166.3 54.3c.2.7 1.7 1.4 3.3 1.7 2.6.5 3 1 3.5 5.5.7 5.3.2 22.2-.7 23.7-.3.4-1.8.8-3.5.8-1.8 0-2.9.5-2.9 1.4 0 2.1.6 2.1 16.7 1.6l14.7-.5 1.2-4.3c.7-2.3 1.1-4.2.9-4.2-.1 0-1.9 1.6-3.8 3.5-3.1 3.1-4.1 3.5-8.4 3.5-6.5 0-8.3-1.9-8.3-8.9 0-3.5.5-5.3 1.4-5.7 2.5-1 8.1 1.1 9.1 3.4 1.7 3.8 2.5 2.4 2.5-4.6-.1-6.5-.1-6.6-1.5-4-1.6 2.8-6.9 4.6-10 3.4-2.1-.8-2.1-12.8 0-14.6 2.5-2.1 9.6-.3 12.8 3.3l2.8 3.2-.6-4c-.4-2.2-.8-4.1-1-4.3-.1-.1-6.6-.4-14.4-.7-10.5-.2-14.1 0-13.8.8zM326.6 53.7c-1 1.1.5 2.3 2.9 2.3 1.4 0 2.9.9 3.5 2 1.3 2.4.8 25.6-.6 27-.5.4-2 1-3.3 1.2-1.4.1-2.6.9-2.9 1.5-.3 1 3.2 1.3 15.2 1.3 17 0 16.4.2 18-6.5l.8-3-3.7 3.8c-3.1 3.2-4.2 3.7-8.3 3.7-7.1 0-9.2-1.9-9.2-8.5 0-3 .4-5.6.9-6 .6-.3 2.8-.2 5.1.1 3.2.5 4.4 1.3 5.1 3.2 1.4 3.6 2 2.3 2.3-4.7.3-6.5-.4-7.6-2.2-3.7-.8 1.7-2.2 2.7-4.7 3.2-5.1.9-6.5-.7-6.5-7.6 0-7.2 1.2-8.4 7.5-7.5 3.4.6 5.1 1.5 7 3.9l2.5 3.1v-3c0-5.3-.6-5.6-15.2-6-7.5-.2-13.9-.1-14.2.2zM525.3 54.4c.2.6 1.3 1.2 2.5 1.4 3.7.6 4.3 2.5 4.3 15.2 0 13-.6 15-4.7 15-2.6 0-4 1.5-2.4 2.5 1.5.9 30.3.6 31.2-.3.3-.4 1-2.4 1.3-4.5l.7-3.7-3.5 3.5c-3.1 3.1-4.1 3.5-8.4 3.5-2.7 0-5.6-.6-6.5-1.3-2.2-1.7-3.3-11.1-1.4-12.6 2.3-1.9 8.5-.3 9.8 2.5 1.9 4.1 2.8 2.7 2.8-4.1 0-6.9-.5-8-2-4.1-1.2 3.3-8.7 4.7-10.7 2-1.2-1.6-1.1-8.9.2-13.2 1-2.9 11.5-.3 13.5 3.3 1.9 3.6 2.6 3.1 2.2-1.5-.4-3.8-.5-4-4.1-4.1-2 0-8.5-.2-14.4-.4-7.8-.2-10.7 0-10.4.9zM20 57.2c0 .3-.4 2.9-1 5.8-.6 3-.6 5.9-.1 6.8.6 1 1-.8 1.3-5.4.3-3.8.3-7.1.1-7.3-.1-.2-.3-.2-.3.1zM20.1 75.6c0 1.1.3 1.4.6.6.3-.7.2-1.6-.1-1.9-.3-.4-.6.2-.5 1.3zM14.7 79.2c-.3 1.2-.3 2.8.1 3.5.5.8.8 0 .9-2.2.1-4-.2-4.4-1-1.3zM117.5 87.6c-4.7 9.1-10.4 15.7-18.2 21-7.6 5.1-8.7 6.1-3.8 3.6 5.7-2.8 17.9-14.4 20.5-19.4 5.2-10.1 6.1-12 5.7-12.4-.2-.2-2.1 3-4.2 7.2z"/></svg>