<svg xmlns="http://www.w3.org/2000/svg" width="170.667" height="170.667" version="1.0" viewBox="0 0 128 128"><path d="M38 1.1C19.2 2.5 6.1 5.4 2.2 9 .1 11 0 11.7 0 29.3c0 21.1 1.2 27.8 6.7 37.5C14 79.9 26.9 89.6 42.1 93.4c9.1 2.2 34.7 2.2 43.8 0 15.2-3.8 28.1-13.5 35.4-26.6 5.5-9.7 6.7-16.4 6.7-37.5 0-20-.1-20.2-6.5-22.9C109.3 1.3 68.7-1.3 38 1.1zm60.5 5c9.6 1.1 21 3.6 23.8 5.1 2 1 2 1.1-.5 2.4-3.4 1.8-14.3 4.1-25.8 5.4-14.1 1.7-54.2 1.4-67.9-.5C16.3 17 5.3 14.3 4.4 12.9c-1.7-2.8 19.8-7 42.6-8.3 9.8-.5 42.4.4 51.5 1.5zm-88 13.4c21.5 6.6 85.5 6.6 107 0 2.8-.8 5.3-1.5 5.8-1.5.4 0 .7 2.2.7 4.9 0 4.3-.3 5-2.4 5.5-1.8.4-2.3 1.1-1.9 2.6.4 1.5 1.1 1.9 2.6 1.4 2-.6 2-.4 1.4 9.2-.3 5.7-1.4 12.3-2.6 15.6C117 69.2 108 79.5 97 84.9c-9.7 4.9-14.1 5.6-33 5.6s-23.3-.7-33-5.6C20 79.5 11 69.2 6.9 57.2c-1.7-5-4-25.2-2.8-25.2.2 0 2 .5 3.9 1 16.5 4.8 56.3 7.4 80.3 5.1 12.2-1.2 26.3-3.4 27.3-4.4 1-1-1-3.7-2.5-3.3C98 34.8 49.6 36.1 28 32.7c-6.3-1-14.3-2.5-17.7-3.4L4 27.8v-4.9c0-2.7.3-4.9.8-4.9.4 0 2.9.7 5.7 1.5zM8 100.8c-5.4 3-7.5 6.5-7.5 12.7 0 6.4 2.3 10.1 8 12.9 3.7 1.8 5.2 1.9 43.4.7 21.8-.6 45.7-1.1 53.1-1.1 11.6 0 13.9-.3 16.7-2 6-3.6 7.9-10.8 4.4-16.6-3.5-5.8-5.2-6.1-42.6-6.8-18.7-.3-42.5-.9-53-1.2-17.6-.5-19.3-.4-22.5 1.4zm8.8 12.5c.3 11.1-.2 11.8-6.2 9.3-7.8-3.3-8.2-14-.6-17.9 6-3 6.5-2.4 6.8 8.6zm16 .4.3 10.3H21v-21.1l5.8.3 5.7.3.3 10.2zm39.5-9 18.7.6v16.4l-16.7.6c-9.1.4-21.3.7-27 .7H37v-19h8.3c4.5 0 16.6.3 27 .7zm48.9 3c3 3 3 8.6 0 11.6-2 2-3.4 2.2-14.2 2.5l-12 .4v-17.4l12 .4c10.8.3 12.2.5 14.2 2.5z"/><path d="M25 109c0 1.3.7 2 2 2s2-.7 2-2-.7-2-2-2-2 .7-2 2zM25 118c0 1.3.7 2 2 2s2-.7 2-2-.7-2-2-2-2 .7-2 2z"/></svg>