<?xml version="1.0" standalone="no"?>
<!DOCTYPE svg PUBLIC "-//W3C//DTD SVG 20010904//EN"
 "http://www.w3.org/TR/2001/REC-SVG-20010904/DTD/svg10.dtd">
<svg version="1.0" xmlns="http://www.w3.org/2000/svg"
 width="128.000000pt" height="128.000000pt" viewBox="0 0 128.000000 128.000000"
 preserveAspectRatio="xMidYMid meet">

<g transform="translate(0.000000,128.000000) scale(0.100000,-0.100000)"
fill="#000000" stroke="none">
<path d="M380 1269 c-188 -14 -319 -43 -358 -79 -21 -20 -22 -27 -22 -203 0
-211 12 -278 67 -375 73 -131 202 -228 354 -266 91 -22 347 -22 438 0 152 38
281 135 354 266 55 97 67 164 67 375 0 200 -1 202 -65 229 -122 51 -528 77
-835 53z m605 -50 c96 -11 210 -36 238 -51 20 -10 20 -11 -5 -24 -34 -18 -143
-41 -258 -54 -141 -17 -542 -14 -679 5 -118 15 -228 42 -237 56 -17 28 198 70
426 83 98 5 424 -4 515 -15z m-880 -134 c215 -66 855 -66 1070 0 28 8 53 15
58 15 4 0 7 -22 7 -49 0 -43 -3 -50 -24 -55 -18 -4 -23 -11 -19 -26 4 -15 11
-19 26 -14 20 6 20 4 14 -92 -3 -57 -14 -123 -26 -156 -41 -120 -131 -223
-241 -277 -97 -49 -141 -56 -330 -56 -189 0 -233 7 -330 56 -110 54 -200 157
-241 277 -17 50 -40 252 -28 252 2 0 20 -5 39 -10 165 -48 563 -74 803 -51
122 12 263 34 273 44 10 10 -10 37 -25 33 -151 -44 -635 -57 -851 -23 -63 10
-143 25 -177 34 l-63 15 0 49 c0 27 3 49 8 49 4 0 29 -7 57 -15z"/>
<path d="M80 272 c-54 -30 -75 -65 -75 -127 0 -64 23 -101 80 -129 37 -18 52
-19 434 -7 218 6 457 11 531 11 116 0 139 3 167 20 60 36 79 108 44 166 -35
58 -52 61 -426 68 -187 3 -425 9 -530 12 -176 5 -193 4 -225 -14z m88 -125 c3
-111 -2 -118 -62 -93 -78 33 -82 140 -6 179 60 30 65 24 68 -86z m160 -4 l3
-103 -61 0 -60 0 0 105 0 106 58 -3 57 -3 3 -102z m395 90 l187 -6 0 -82 0
-82 -167 -6 c-91 -4 -213 -7 -270 -7 l-103 0 0 95 0 95 83 0 c45 0 166 -3 270
-7z m489 -30 c30 -30 30 -86 0 -116 -20 -20 -34 -22 -142 -25 l-120 -4 0 87 0
87 120 -4 c108 -3 122 -5 142 -25z"/>
<path d="M250 190 c0 -13 7 -20 20 -20 13 0 20 7 20 20 0 13 -7 20 -20 20 -13
0 -20 -7 -20 -20z"/>
<path d="M250 100 c0 -13 7 -20 20 -20 13 0 20 7 20 20 0 13 -7 20 -20 20 -13
0 -20 -7 -20 -20z"/>
</g>
</svg>
