<?xml version="1.0" standalone="no"?>
<!DOCTYPE svg PUBLIC "-//W3C//DTD SVG 20010904//EN"
 "http://www.w3.org/TR/2001/REC-SVG-20010904/DTD/svg10.dtd">
<svg version="1.0" xmlns="http://www.w3.org/2000/svg"
 width="128.000000pt" height="128.000000pt" viewBox="0 0 128.000000 128.000000"
 preserveAspectRatio="xMidYMid meet">

<g transform="translate(0.000000,128.000000) scale(0.100000,-0.100000)"
fill="#000000" stroke="none">
<path d="M802 1179 c-62 -31 -122 -119 -122 -179 0 -17 6 -20 49 -20 46 0 50
2 56 28 24 108 182 126 230 26 9 -19 15 -60 15 -98 l0 -66 -225 0 -225 0 0
-50 0 -50 50 0 50 0 0 -176 0 -177 -118 5 c-91 4 -128 10 -166 26 l-48 22 60
65 c82 87 102 167 66 253 -72 173 -316 177 -395 7 -40 -87 -19 -173 65 -262
58 -63 59 -64 40 -84 -30 -33 -95 -67 -142 -75 l-42 -7 0 -50 0 -50 47 7 c63
8 142 46 191 91 l41 37 30 -21 c53 -38 112 -52 242 -58 l127 -6 4 -73 c5 -116
52 -160 177 -171 l71 -6 0 50 0 51 -59 4 c-80 6 -91 17 -91 89 l0 59 124 0
124 0 4 -74 c5 -118 52 -162 177 -173 l71 -6 0 50 0 51 -59 4 c-80 6 -91 17
-91 89 l0 59 75 0 75 0 0 50 0 50 -75 0 -75 0 0 175 0 175 50 0 50 0 0 50 0
50 -49 0 -49 0 -4 88 c-3 74 -9 96 -32 135 -41 71 -93 101 -180 105 -57 2 -79
-1 -114 -19z m-452 -386 c22 -20 33 -40 37 -69 6 -50 -10 -84 -69 -142 l-44
-43 -52 55 c-56 59 -68 88 -58 140 15 81 123 115 186 59z m680 -198 l0 -175
-125 0 -125 0 0 175 0 175 125 0 125 0 0 -175z"/>
</g>
</svg>
