<?xml version="1.0" standalone="no"?>
<!DOCTYPE svg PUBLIC "-//W3C//DTD SVG 20010904//EN"
 "http://www.w3.org/TR/2001/REC-SVG-20010904/DTD/svg10.dtd">
<svg version="1.0" xmlns="http://www.w3.org/2000/svg"
 width="128.000000pt" height="128.000000pt" viewBox="0 0 128.000000 128.000000"
 preserveAspectRatio="xMidYMid meet">

<g transform="translate(0.000000,128.000000) scale(0.100000,-0.100000)"
fill="#000000" stroke="none">
<path d="M109 1229 c-17 -22 -38 -57 -45 -77 -16 -45 -18 -131 -4 -168 13 -33
10 -37 -24 -25 l-26 11 0 -54 c0 -65 28 -113 83 -139 30 -15 37 -24 37 -48 0
-29 -1 -29 -58 -29 -32 0 -61 -2 -64 -5 -3 -3 3 -54 13 -113 23 -130 23 -132
4 -132 -13 0 -15 -32 -15 -225 l0 -225 630 0 630 0 0 225 c0 193 -2 225 -15
225 -19 0 -19 2 4 132 10 59 16 110 13 113 -3 3 -32 5 -64 5 -57 0 -58 0 -58
29 0 24 7 33 37 48 55 26 83 74 83 139 l0 54 -26 -11 c-34 -12 -37 -8 -24 25
27 72 3 183 -54 251 -34 40 -34 40 -55 21 -12 -11 -34 -46 -51 -79 -32 -64
-40 -140 -20 -193 13 -33 10 -37 -24 -25 l-26 11 0 -54 c0 -64 27 -110 83
-139 30 -15 37 -25 37 -48 0 -29 0 -29 -60 -29 -70 0 -69 5 -45 -130 18 -105
19 -120 1 -120 -9 0 -16 17 -21 47 -10 66 -27 104 -69 151 -37 41 -110 82
-145 82 -33 0 -36 22 -7 43 32 23 56 67 56 102 0 20 5 25 24 25 29 0 69 45 61
69 -3 10 10 26 36 45 l41 29 -28 22 -27 22 22 15 c27 19 21 36 -31 85 -60 57
-119 77 -248 81 -67 2 -133 -1 -157 -7 -99 -27 -155 -119 -132 -219 6 -30 6
-49 -2 -64 -14 -27 17 -72 53 -76 22 -3 26 -9 31 -45 4 -32 14 -49 42 -74 38
-32 39 -53 4 -53 -37 0 -110 -43 -149 -88 -39 -43 -70 -119 -70 -169 0 -14 -6
-23 -15 -23 -19 0 -19 14 0 120 24 135 25 130 -45 130 -60 0 -60 0 -60 29 0
23 7 33 38 48 55 29 82 75 82 139 l0 54 -26 -11 c-34 -12 -37 -8 -24 25 16 44
11 127 -11 176 -22 50 -66 110 -79 110 -4 0 -23 -18 -41 -41z m679 -14 c48
-15 122 -66 122 -85 0 -4 -14 -17 -31 -28 l-31 -19 30 -19 c24 -14 29 -21 20
-31 -15 -18 -77 -17 -84 2 -3 8 -13 17 -22 20 -10 2 -23 14 -30 26 -12 19 -11
24 13 49 l26 28 -48 10 c-26 6 -67 14 -90 17 -38 6 -43 5 -43 -13 0 -23 18
-32 66 -32 32 0 33 -2 22 -20 -10 -15 -10 -22 0 -32 22 -22 12 -28 -47 -28
-81 0 -108 12 -119 52 -11 44 -42 51 -42 9 0 -37 -40 -101 -60 -98 -11 2 -15
17 -15 64 0 55 4 65 30 93 16 17 43 35 60 39 51 15 217 12 273 -4z m-604 -57
c31 -62 34 -126 7 -183 l-19 -40 -1 108 c-1 100 -2 107 -21 107 -19 0 -20 -7
-21 -107 l-1 -108 -19 40 c-27 55 -22 146 10 198 12 20 26 37 31 37 4 0 20
-23 34 -52z m983 2 c29 -54 30 -129 4 -185 l-19 -40 -1 108 c-1 100 -2 107
-21 107 -19 0 -20 -7 -21 -107 l-1 -108 -19 40 c-27 57 -24 120 7 183 14 29
31 51 37 49 6 -2 21 -23 34 -47z m-611 -125 c20 -10 60 -15 127 -15 l97 0 0
-83 c0 -90 -13 -121 -56 -137 -19 -7 -24 -17 -24 -43 0 -25 -7 -38 -30 -55
l-30 -23 -30 23 c-23 17 -30 30 -30 55 0 26 -5 36 -24 43 -44 16 -56 47 -56
140 0 54 5 91 12 98 15 15 10 15 44 -3z m-96 -75 c0 -13 -7 -20 -20 -20 -13 0
-20 7 -20 20 0 13 7 20 20 20 13 0 20 -7 20 -20z m400 0 c0 -13 -7 -20 -20
-20 -13 0 -20 7 -20 20 0 13 7 20 20 20 13 0 20 -7 20 -20z m-774 -68 c38 -30
57 -82 30 -82 -19 0 -66 57 -66 81 0 23 9 24 36 1z m164 -3 c0 -21 -50 -79
-69 -79 -36 0 25 98 62 100 4 0 7 -9 7 -21z m811 11 c32 -17 63 -90 38 -90
-19 0 -69 58 -69 79 0 24 4 25 31 11z m169 -9 c0 -24 -47 -81 -66 -81 -27 0
-8 52 30 82 27 23 36 22 36 -1z m-691 -308 c1 -21 21 -15 62 18 l39 31 39 -31
c21 -17 43 -31 47 -31 5 0 20 27 32 60 l23 60 39 -20 c41 -21 105 -89 113
-121 4 -16 0 -19 -30 -19 -26 0 -36 5 -40 20 -3 11 -14 20 -24 20 -16 0 -19
-8 -19 -43 l0 -43 -64 -15 c-59 -15 -64 -14 -86 3 -28 22 -63 23 -96 2 -21
-14 -30 -15 -69 -4 -45 12 -45 13 -45 56 0 36 -3 44 -19 44 -10 0 -21 -9 -24
-20 -4 -15 -14 -20 -40 -20 -30 0 -34 3 -30 19 8 31 72 100 112 121 l36 19 22
-47 c12 -26 22 -53 22 -59z m45 88 c15 -16 15 -19 1 -31 -17 -14 -17 -15 -33
23 -9 22 -9 27 2 27 7 0 20 -8 30 -19z m144 -8 c-16 -38 -16 -37 -33 -23 -14
12 -14 15 1 31 10 11 23 19 30 19 11 0 11 -5 2 -27z m-497 -110 l-16 -98 -66
-3 -65 -3 -13 83 c-7 46 -14 91 -17 101 -5 15 4 17 94 17 l99 0 -16 -97z m995
80 c-3 -10 -10 -55 -17 -101 l-13 -83 -65 3 -66 3 -16 98 -16 97 99 0 c90 0
99 -2 94 -17z m-825 -166 c-19 -22 -20 -25 -6 -37 13 -11 19 -11 32 2 14 14
21 14 74 -4 l58 -19 31 22 c33 25 62 19 68 -15 8 -38 -15 -46 -139 -46 -115 0
-119 1 -149 28 -16 15 -33 42 -36 60 l-6 32 47 0 48 0 -22 -23z m545 -9 c-3
-18 -20 -45 -36 -60 -29 -26 -36 -28 -125 -28 -93 0 -94 0 -86 22 6 17 24 26
74 39 59 15 67 15 81 1 12 -13 18 -13 31 -2 14 12 13 15 -6 37 l-22 23 48 0
48 0 -7 -32z m-638 -58 c-1 -5 -23 -20 -47 -32 -63 -32 -86 -67 -86 -133 0
-58 18 -91 69 -129 27 -20 39 -21 396 -21 357 0 369 1 396 21 51 38 69 71 69
129 0 66 -23 101 -86 133 -24 12 -45 27 -47 32 -2 6 46 10 127 10 l131 0 0
-185 0 -185 -590 0 -590 0 0 185 0 185 131 0 c81 0 129 -4 127 -10z m62 -55
c38 -22 499 -21 540 0 27 14 34 14 67 0 81 -34 112 -98 78 -161 -25 -47 -68
-64 -159 -64 -75 0 -76 0 -76 26 0 21 -8 29 -41 42 l-41 16 37 18 c46 24 104
25 137 4 21 -14 27 -14 37 -3 26 32 -76 75 -135 58 -16 -5 -46 -17 -68 -26
-57 -24 -151 -25 -206 -2 -25 11 -58 23 -74 28 -58 17 -161 -26 -135 -57 9
-11 15 -10 35 3 34 22 90 18 157 -11 54 -24 57 -28 57 -61 l0 -35 -136 0
c-155 0 -190 10 -219 64 -34 62 -4 126 75 160 43 19 39 18 70 1z m324 -164
c10 -10 33 -22 52 -25 20 -4 34 -13 34 -21 0 -12 -17 -15 -80 -15 l-80 0 0 33
c0 19 3 37 7 40 13 13 50 7 67 -12z"/>
<path d="M540 960 c0 -17 7 -20 40 -20 33 0 40 3 40 20 0 17 -7 20 -40 20 -33
0 -40 -3 -40 -20z"/>
<path d="M660 960 c0 -17 7 -20 40 -20 33 0 40 3 40 20 0 17 -7 20 -40 20 -33
0 -40 -3 -40 -20z"/>
<path d="M576 877 c-17 -13 -17 -15 9 -35 36 -29 77 -28 111 2 27 23 28 23 7
34 -16 9 -24 8 -33 -3 -16 -19 -39 -19 -60 0 -14 12 -19 13 -34 2z"/>
</g>
</svg>
