<svg xmlns="http://www.w3.org/2000/svg" width="170.667" height="170.667" version="1.0" viewBox="0 0 128 128"><path d="M10.9 5.1c-1.7 2.2-3.8 5.7-4.5 7.7-1.6 4.5-1.8 13.1-.4 16.8 1.3 3.3 1 3.7-2.4 2.5L1 31v5.4c0 6.5 2.8 11.3 8.3 13.9 3 1.5 3.7 2.4 3.7 4.8 0 2.9-.1 2.9-5.8 2.9-3.2 0-6.1.2-6.4.5-.3.3.3 5.4 1.3 11.3 2.3 13 2.3 13.2.4 13.2C1.2 83 1 86.2 1 105.5V128h126v-22.5c0-19.3-.2-22.5-1.5-22.5-1.9 0-1.9-.2.4-13.2 1-5.9 1.6-11 1.3-11.3-.3-.3-3.2-.5-6.4-.5-5.7 0-5.8 0-5.8-2.9 0-2.4.7-3.3 3.7-4.8 5.5-2.6 8.3-7.4 8.3-13.9V31l-2.6 1.1c-3.4 1.2-3.7.8-2.4-2.5 2.7-7.2.3-18.3-5.4-25.1-3.4-4-3.4-4-5.5-2.1-1.2 1.1-3.4 4.6-5.1 7.9-3.2 6.4-4 14-2 19.3 1.3 3.3 1 3.7-2.4 2.5L99 31v5.4c0 6.4 2.7 11 8.3 13.9 3 1.5 3.7 2.5 3.7 4.8 0 2.9 0 2.9-6 2.9-7 0-6.9-.5-4.5 13 1.8 10.5 1.9 12 .1 12-.9 0-1.6-1.7-2.1-4.7-1-6.6-2.7-10.4-6.9-15.1-3.7-4.1-11-8.2-14.5-8.2-3.3 0-3.6-2.2-.7-4.3C79.6 48.4 82 44 82 40.5c0-2 .5-2.5 2.4-2.5 2.9 0 6.9-4.5 6.1-6.9-.3-1 1-2.6 3.6-4.5l4.1-2.9-2.8-2.2-2.7-2.2 2.2-1.5c2.7-1.9 2.1-3.6-3.1-8.5-6-5.7-11.9-7.7-24.8-8.1-6.7-.2-13.3.1-15.7.7-9.9 2.7-15.5 11.9-13.2 21.9.6 3 .6 4.9-.2 6.4-1.4 2.7 1.7 7.2 5.3 7.6 2.2.3 2.6.9 3.1 4.5.4 3.2 1.4 4.9 4.2 7.4 3.8 3.2 3.9 5.3.4 5.3-3.7 0-11 4.3-14.9 8.8-3.9 4.3-7 11.9-7 16.9 0 1.4-.6 2.3-1.5 2.3-1.9 0-1.9-1.4 0-12C29.9 57.5 30 58 23 58c-6 0-6 0-6-2.9 0-2.3.7-3.3 3.8-4.8 5.5-2.9 8.2-7.5 8.2-13.9V31l-2.6 1.1c-3.4 1.2-3.7.8-2.4-2.5 1.6-4.4 1.1-12.7-1.1-17.6C20.7 7 16.3 1 15 1c-.4 0-2.3 1.8-4.1 4.1zm67.9 1.4C83.6 8 91 13.1 91 15c0 .4-1.4 1.7-3.1 2.8l-3.1 1.9 3 1.9c2.4 1.4 2.9 2.1 2 3.1-1.5 1.8-7.7 1.7-8.4-.2-.3-.8-1.3-1.7-2.2-2-1-.2-2.3-1.4-3-2.6-1.2-1.9-1.1-2.4 1.3-4.9l2.6-2.8-4.8-1c-2.6-.6-6.7-1.4-9-1.7-3.8-.6-4.3-.5-4.3 1.3 0 2.3 1.8 3.2 6.6 3.2 3.2 0 3.3.2 2.2 2-1 1.5-1 2.2 0 3.2C73 21.4 72 22 66.1 22c-8.1 0-10.8-1.2-11.9-5.2-1.1-4.4-4.2-5.1-4.2-.9 0 3.7-4 10.1-6 9.8-1.1-.2-1.5-1.7-1.5-6.4 0-5.5.4-6.5 3-9.3 1.6-1.7 4.3-3.5 6-3.9 5.1-1.5 21.7-1.2 27.3.4zm-60.4 5.7c3.1 6.2 3.4 12.6.7 18.3l-1.9 4-.1-10.8C17 13.7 16.9 13 15 13c-1.9 0-2 .7-2.1 10.7l-.1 10.8-1.9-4c-2.7-5.5-2.2-14.6 1-19.8C13.1 8.7 14.5 7 15 7c.4 0 2 2.3 3.4 5.2zm98.3-.2c2.9 5.4 3 12.9.4 18.5l-1.9 4-.1-10.8c-.1-10-.2-10.7-2.1-10.7-1.9 0-2 .7-2.1 10.7l-.1 10.8-1.9-4c-2.7-5.7-2.4-12 .7-18.3 1.4-2.9 3.1-5.1 3.7-4.9.6.2 2.1 2.3 3.4 4.7zM55.6 24.5c2 1 6 1.5 12.7 1.5H78v8.3c0 9-1.3 12.1-5.6 13.7-1.9.7-2.4 1.7-2.4 4.3 0 2.5-.7 3.8-3 5.5l-3 2.3-3-2.3c-2.3-1.7-3-3-3-5.5 0-2.6-.5-3.6-2.4-4.3-4.4-1.6-5.6-4.7-5.6-14 0-5.4.5-9.1 1.2-9.8 1.5-1.5 1-1.5 4.4.3zM46 32c0 1.3-.7 2-2 2s-2-.7-2-2 .7-2 2-2 2 .7 2 2zm40 0c0 1.3-.7 2-2 2s-2-.7-2-2 .7-2 2-2 2 .7 2 2zM8.6 38.8c3.8 3 5.7 8.2 3 8.2C9.7 47 5 41.3 5 38.9c0-2.3.9-2.4 3.6-.1zm16.4.3c0 2.1-5 7.9-6.9 7.9-3.6 0 2.5-9.8 6.2-10 .4 0 .7.9.7 2.1zm81.1-1.1c3.2 1.7 6.3 9 3.8 9-1.9 0-6.9-5.8-6.9-7.9 0-2.4.4-2.5 3.1-1.1zm16.9.9c0 2.4-4.7 8.1-6.6 8.1-2.7 0-.8-5.2 3-8.2 2.7-2.3 3.6-2.2 3.6.1zM53.9 69.7c.1 2.1 2.1 1.5 6.2-1.8l3.9-3.1 3.9 3.1c2.1 1.7 4.3 3.1 4.7 3.1.5 0 2-2.7 3.2-6l2.3-6 3.9 2c4.1 2.1 10.5 8.9 11.3 12.1.4 1.6 0 1.9-3 1.9-2.6 0-3.6-.5-4-2-.3-1.1-1.4-2-2.4-2-1.6 0-1.9.8-1.9 4.3v4.3l-6.4 1.5c-5.9 1.5-6.4 1.4-8.6-.3-2.8-2.2-6.3-2.3-9.6-.2-2.1 1.4-3 1.5-6.9.4-4.5-1.2-4.5-1.3-4.5-5.6 0-3.6-.3-4.4-1.9-4.4-1 0-2.1.9-2.4 2-.4 1.5-1.4 2-4 2-3 0-3.4-.3-3-1.9.8-3.1 7.2-10 11.2-12.1l3.6-1.9 2.2 4.7c1.2 2.6 2.2 5.3 2.2 5.9zm4.5-8.8c1.5 1.6 1.5 1.9.1 3.1-1.7 1.4-1.7 1.5-3.3-2.3-.9-2.2-.9-2.7.2-2.7.7 0 2 .8 3 1.9zm14.4.8c-1.6 3.8-1.6 3.7-3.3 2.3-1.4-1.2-1.4-1.5.1-3.1 1-1.1 2.3-1.9 3-1.9 1.1 0 1.1.5.2 2.7zm-49.7 11-1.6 9.8-6.6.3-6.5.3-1.3-8.3c-.7-4.6-1.4-9.1-1.7-10.1-.5-1.5.4-1.7 9.4-1.7h9.9l-1.6 9.7zm99.5-8c-.3 1-1 5.5-1.7 10.1l-1.3 8.3-6.5-.3-6.6-.3-1.6-9.8-1.6-9.7h9.9c9 0 9.9.2 9.4 1.7zM40.1 81.3c-1.9 2.2-2 2.5-.6 3.7 1.3 1.1 1.9 1.1 3.2-.2 1.4-1.4 2.1-1.4 7.4.4l5.8 1.9 3.1-2.2c3.3-2.5 6.2-1.9 6.8 1.5.8 3.8-1.5 4.6-13.9 4.6-11.5 0-11.9-.1-14.9-2.8-1.6-1.5-3.3-4.2-3.6-6l-.6-3.2h9.5l-2.2 2.3zm54.5.9c-.3 1.8-2 4.5-3.6 6-2.9 2.6-3.6 2.8-12.5 2.8-9.3 0-9.4 0-8.6-2.2.6-1.7 2.4-2.6 7.4-3.9 5.9-1.5 6.7-1.5 8.1-.1 1.2 1.3 1.8 1.3 3.1.2 1.4-1.2 1.3-1.5-.6-3.7L85.7 79h9.6l-.7 3.2zM30.8 88c-.1.5-2.3 2-4.7 3.2-6.3 3.2-8.6 6.7-8.6 13.3 0 5.8 1.8 9.1 6.9 12.9 2.7 2 3.9 2.1 39.6 2.1s36.9-.1 39.6-2.1c5.1-3.8 6.9-7.1 6.9-12.9 0-6.6-2.3-10.1-8.6-13.3-2.4-1.2-4.5-2.7-4.7-3.2-.2-.6 4.6-1 12.7-1H123v37H5V87h13.1c8.1 0 12.9.4 12.7 1zm6.2 5.5c3.8 2.2 49.9 2.1 54 0 2.7-1.4 3.4-1.4 6.7 0 8.1 3.4 11.2 9.8 7.8 16.1-2.5 4.7-6.8 6.4-15.9 6.4-7.5 0-7.6 0-7.6-2.6 0-2.1-.8-2.9-4.1-4.2l-4.1-1.6 3.7-1.8c4.6-2.4 10.4-2.5 13.7-.4 2.1 1.4 2.7 1.4 3.7.3 2.6-3.2-7.6-7.5-13.5-5.8-1.6.5-4.6 1.7-6.8 2.6-5.7 2.4-15.1 2.5-20.6.2-2.5-1.1-5.8-2.3-7.4-2.8-5.8-1.7-16.1 2.6-13.5 5.7.9 1.1 1.5 1 3.5-.3 3.4-2.2 9-1.8 15.7 1.1 5.4 2.4 5.7 2.8 5.7 6.1v3.5H44.4c-15.5 0-19-1-21.9-6.4-3.4-6.2-.4-12.6 7.5-16 4.3-1.9 3.9-1.8 7-.1zm32.4 16.4c1 1 3.3 2.2 5.2 2.5 2 .4 3.4 1.3 3.4 2.1 0 1.2-1.7 1.5-8 1.5h-8v-3.3c0-1.9.3-3.7.7-4 1.3-1.3 5-.7 6.7 1.2z"/><path d="M54 32c0 1.7.7 2 4 2s4-.3 4-2-.7-2-4-2-4 .3-4 2zM66 32c0 1.7.7 2 4 2s4-.3 4-2-.7-2-4-2-4 .3-4 2zM57.6 40.3c-1.7 1.3-1.7 1.5.9 3.5 3.6 2.9 7.7 2.8 11.1-.2 2.7-2.3 2.8-2.3.7-3.4-1.6-.9-2.4-.8-3.3.3-1.6 1.9-3.9 1.9-6 0-1.4-1.2-1.9-1.3-3.4-.2z"/></svg>