<svg xmlns="http://www.w3.org/2000/svg" width="170.667" height="170.667" version="1.0" viewBox="0 0 128 128"><path d="M35.5 2.8c-.6.4-2.4 2.9-4 5.7-1.6 2.7-6.1 8.3-10.2 12.3-5.8 5.8-7.3 7.9-7.3 10.3 0 2.8.2 2.9 4.7 2.9h4.7l-4.2 4.3c-2.9 2.9-4.5 5.5-4.9 8l-.6 3.7h9.7l-4.2 4.3c-2.9 2.9-4.5 5.5-4.9 8l-.6 3.7H36v3.8c0 3.4-.3 3.9-3.5 5.1-2.2.8-4.1 2.4-5.2 4.4-.9 1.8-2.6 4.2-3.9 5.4-2.9 2.7-4 6.9-2.7 10.4 1 2.5.8 2.9-.9 3.5-1.1.3-2.6 2.1-3.4 4-1.3 3.2-1.8 3.4-5.9 3.4-5 0-8.5 2.5-8.5 6 0 3.9 3.5 6 10 6 5.3 0 6 .2 6 2 0 1.1.9 2.9 2 4 1.9 1.9 3.3 2 43 2s41.1-.1 43-2c4.5-4.5 1.5-9.2-6.1-10-3.9-.3-5.4-.9-5.4-2 0-1.2 2.5-1.6 14.3-2 12.7-.4 14.5-.7 15.8-2.4 1.9-2.7 1.8-5.2-.6-7.6-1.5-1.5-3.3-2-7.9-2-5.1 0-6.1-.3-7.5-2.5-.9-1.4-2.7-2.7-4.1-3.1-2.4-.6-2.5-1-2.5-7.5 0-6.6.1-6.9 1.9-5.9 6.1 3.2 14.1-2 14.1-9.1 0-1.1.7-2.7 1.5-3.5 2.3-2.3 2.9-6.4 1.6-9.8-.7-1.7-1.4-5.1-1.6-7.6-.4-5.4-1.9-13.8-3-16.3-.4-1-2.2-2.5-3.9-3.4-1.7-.9-4.1-2.6-5.3-3.9-4.2-4.6-10.2-4.4-15.2.5-1.7 1.6-3.9 3.2-5.1 3.6-2.6.8-5 5.4-5 9.7 0 5.1-1.1 6.1-4.6 4.3-3.9-2-7.2-1.9-11.7.5-3.5 1.9-3.8 1.9-4.4.3-.3-1-2.4-3.7-4.6-6.1L52.6 34h4.7c4.6 0 4.7-.1 4.7-3.1 0-2.5-1.3-4.2-6.7-9.4-3.8-3.5-8.4-9-10.3-12.2C41.3 3 40.3 2 38 2c-.8 0-2 .4-2.5.8zm6 8.4c1.7 2.9 6.1 8.3 9.8 12l6.8 6.8H51c-6.3 0-7 .2-7 2 0 1.3.7 2 1.9 2 1 0 4.3 2.6 7.2 5.7l5.2 5.8-7.1.3c-6.4.3-7.2.5-7.2 2.2 0 1.2.7 2 1.7 2C48 50 56 57.9 56 60.2c0 1.7-1.4 1.8-19.1 1.8-21.6 0-20.5.7-12.5-7.8 2.2-2.3 4.8-4.2 5.8-4.2 1.1 0 1.8-.7 1.8-2 0-1.7-.8-1.9-7.2-2.2l-7.1-.3 5.2-5.8c2.9-3.1 6.2-5.7 7.2-5.7 1.2 0 1.9-.7 1.9-2 0-1.8-.7-2-7-2h-7.1l6.8-6.8c3.7-3.7 8.2-9.1 9.8-12C36.2 8.4 37.7 6 38 6c.3 0 1.9 2.4 3.5 5.2zM104 28c1.1 1.1 2 2.4 2 3 0 .5.9 1 2 1 3.3 0 6.3 3.8 5.6 7.1-.3 1.8.1 4 1.2 5.9 1.6 2.8 1.6 3.2.1 5.8-1.5 2.7-1.5 2.9.7 5 3.1 2.6 3 5.7 0 8.5-1.8 1.6-2.3 3-1.9 4.9.6 3.1-2.5 6.8-5.7 6.8s-6-3.6-6-7.6c0-2.7.9-4.8 3.5-8 3.9-4.7 4.2-5.9 2-6.7-.8-.4-2.3.5-3.5 2l-2 2.6V48.1c0-9.4-.1-10.1-2-10.1-1.8 0-2 .7-2 6.1v6.2l-2-2.6c-1.2-1.5-2.7-2.4-3.5-2-2.2.8-1.9 2 2 6.7 3.3 4.1 3.5 4.7 3.5 12 0 6.3-.3 7.9-2 9.6-2.2 2.2-4.2 2.5-7.1 1-1.7-1-1.9-1.8-1.3-7.5.5-5.2.2-7.8-1.6-13.5-2.1-6.5-2.1-7.1-.6-9.4 1-1.6 1.4-3.5 1-5.4-.7-3.4 2.2-7.2 5.6-7.2 1.1 0 2-.5 2-1 0-1.7 3.9-5 6-5 1.1 0 2.9.9 4 2zM78.5 49.3c7.5 7.5 7.3 22.2-.4 29.7l-3.6 3.5-.3-7.8c-.3-7.7-.2-8 3.3-12.2 3.9-4.8 4.2-6 2-6.8-.8-.4-2.3.5-3.5 2l-2 2.6v-3.2c0-2.4-.4-3.1-2-3.1-1.8 0-2 .7-2 7.7v7.8l-2.1-3.2c-1.2-2-2.6-3-3.5-2.6-2.1.8-1.8 1.7 2.2 7.7 2.5 3.7 3.5 6.3 3.2 8.3l-.3 2.8-3.6-3.5c-7.7-7.5-7.9-22.2-.4-29.7 4.5-4.5 8.5-4.5 13 0zM59 50.7c0 .5-.5 1.5-1 2.3-.8 1.3-1.3 1.2-3.2-.8L52.6 50h3.2c1.8 0 3.2.3 3.2.7zm-2.1 20c1.6 6.3 5.4 11.8 9.7 13.8 3.3 1.6 3.4 1.8 3.4 7.5v6h-4c-3.7 0-4-.2-3-1.9 3.3-6.2-2-14.1-9.4-14.1-1.3 0-2.6-.4-2.8-.8-.1-.5-2.5-2-5.3-3.4-4.8-2.4-5-2.6-5.3-7.1l-.3-4.7h15.9l1.1 4.7zM91.8 80c1.3 0 3.2-.5 4.3-1 1.8-1 1.9-.7 1.9 4.4v5.5l-3.6-2.4c-2-1.4-4.8-2.5-6.1-2.5-3.3 0-8 2.6-8.7 4.8-.4 1-1.7 3.4-3.1 5.2L74 97.4v-5.7c0-5.4.1-5.7 3.5-7.3 2-.9 4.5-2.9 5.6-4.5 1.9-2.7 2.2-2.8 4.2-1.4 1.2.8 3.2 1.5 4.5 1.5zm-51.7-.2c1.3 1.1 3.6 2.2 5.1 2.6 1.5.3 3.2 1.5 3.8 2.6.8 1.5 1.7 1.8 3.9 1.4 2.1-.5 3.4-.1 5 1.5 2.5 2.5 2.7 4.9.5 7.9C57 97.9 56.3 98 42 98c-14.8 0-15 0-16.6-2.5-2.1-3.2-1.1-7.2 2.1-8.7 1.4-.6 2.5-1.9 2.5-3 0-2.3 3.5-5.8 5.9-5.8 1 0 2.9.8 4.2 1.8zm51.7 10c1 1 2.6 2.2 3.6 2.5 1 .4 2 1.6 2.3 2.7.4 1.5 1.1 1.8 3.3 1.4 1.5-.4 3.1-.1 3.4.5.5.8-3.2 1.1-12.6 1.1-11.3-.1-13-.3-11.5-1.4.9-.7 1.7-2.1 1.7-3 0-2.2 3.6-5.6 6-5.6 1.1 0 2.8.8 3.8 1.8zm29.7 14.2c0 1.2-2.5 1.6-14.3 2-12.7.4-14.5.7-15.8 2.4-.8 1.1-1.4 2.8-1.4 3.8 0 1.1-.7 1.8-2 1.8s-2 .7-2 2c0 1.7.8 1.9 8.8 2.2 6.9.2 8.7.6 8.7 1.8 0 1.3-5.2 1.5-40.5 1.5s-40.5-.2-40.5-1.5c0-1.2 1.5-1.6 6.8-1.8 5.8-.3 6.7-.5 6.7-2.2 0-1.8-.9-2-14.7-2.2-12.4-.3-14.8-.5-14.8-1.8 0-1 1.2-1.6 3.5-1.8 6.7-.5 8.1-1.2 9.6-4.7L21 102l50.3.2c43.8.3 50.2.5 50.2 1.8z"/><path d="M36 108c0 1.7.7 2 4 2 2.8 0 4 .4 4 1.4 0 2.8 3 4.6 7.6 4.6 3.7 0 4.4-.3 4.4-2s-.7-2-4-2c-2.8 0-4-.4-4-1.4 0-2.8-3-4.6-7.6-4.6-3.7 0-4.4.3-4.4 2z"/></svg>