<?xml version="1.0" standalone="no"?>
<!DOCTYPE svg PUBLIC "-//W3C//DTD SVG 20010904//EN"
 "http://www.w3.org/TR/2001/REC-SVG-20010904/DTD/svg10.dtd">
<svg version="1.0" xmlns="http://www.w3.org/2000/svg"
 width="128.000000pt" height="128.000000pt" viewBox="0 0 128.000000 128.000000"
 preserveAspectRatio="xMidYMid meet">

<g transform="translate(0.000000,128.000000) scale(0.100000,-0.100000)"
fill="#000000" stroke="none">
<path d="M355 1252 c-6 -4 -24 -29 -40 -57 -16 -27 -61 -83 -102 -123 -58 -58
-73 -79 -73 -103 0 -28 2 -29 47 -29 l47 0 -42 -43 c-29 -29 -45 -55 -49 -80
l-6 -37 49 0 48 0 -42 -43 c-29 -29 -45 -55 -49 -80 l-6 -37 112 0 111 0 0
-38 c0 -34 -3 -39 -35 -51 -22 -8 -41 -24 -52 -44 -9 -18 -26 -42 -39 -54 -29
-27 -40 -69 -27 -104 10 -25 8 -29 -9 -35 -11 -3 -26 -21 -34 -40 -13 -32 -18
-34 -59 -34 -50 0 -85 -25 -85 -60 0 -39 35 -60 100 -60 53 0 60 -2 60 -20 0
-11 9 -29 20 -40 19 -19 33 -20 430 -20 397 0 411 1 430 20 45 45 15 92 -61
100 -39 3 -54 9 -54 20 0 12 25 16 143 20 127 4 145 7 158 24 19 27 18 52 -6
76 -15 15 -33 20 -79 20 -51 0 -61 3 -75 25 -9 14 -27 27 -41 31 -24 6 -25 10
-25 75 0 66 1 69 19 59 61 -32 141 20 141 91 0 11 7 27 15 35 23 23 29 64 16
98 -7 17 -14 51 -16 76 -4 54 -19 138 -30 163 -4 10 -22 25 -39 34 -17 9 -41
26 -53 39 -42 46 -102 44 -152 -5 -17 -16 -39 -32 -51 -36 -26 -8 -50 -54 -50
-97 0 -51 -11 -61 -46 -43 -39 20 -72 19 -117 -5 -35 -19 -38 -19 -44 -3 -3
10 -24 37 -46 61 l-41 42 47 0 c46 0 47 1 47 31 0 25 -13 42 -67 94 -38 35
-84 90 -103 122 -37 63 -47 73 -70 73 -8 0 -20 -4 -25 -8z m60 -84 c17 -29 61
-83 98 -120 l68 -68 -71 0 c-63 0 -70 -2 -70 -20 0 -13 7 -20 19 -20 10 0 43
-26 72 -57 l52 -58 -71 -3 c-64 -3 -72 -5 -72 -22 0 -12 7 -20 17 -20 23 0
103 -79 103 -102 0 -17 -14 -18 -191 -18 -216 0 -205 -7 -125 78 22 23 48 42
58 42 11 0 18 7 18 20 0 17 -8 19 -72 22 l-71 3 52 58 c29 31 62 57 72 57 12
0 19 7 19 20 0 18 -7 20 -70 20 l-71 0 68 68 c37 37 82 91 98 120 17 28 32 52
35 52 3 0 19 -24 35 -52z m625 -168 c11 -11 20 -24 20 -30 0 -5 9 -10 20 -10
33 0 63 -38 56 -71 -3 -18 1 -40 12 -59 16 -28 16 -32 1 -58 -15 -27 -15 -29
7 -50 31 -26 30 -57 0 -85 -18 -16 -23 -30 -19 -49 6 -31 -25 -68 -57 -68 -32
0 -60 36 -60 76 0 27 9 48 35 80 39 47 42 59 20 67 -8 4 -23 -5 -35 -20 l-20
-26 0 102 c0 94 -1 101 -20 101 -18 0 -20 -7 -20 -61 l0 -62 -20 26 c-12 15
-27 24 -35 20 -22 -8 -19 -20 20 -67 33 -41 35 -47 35 -120 0 -63 -3 -79 -20
-96 -22 -22 -42 -25 -71 -10 -17 10 -19 18 -13 75 5 52 2 78 -16 135 -21 65
-21 71 -6 94 10 16 14 35 10 54 -7 34 22 72 56 72 11 0 20 5 20 10 0 17 39 50
60 50 11 0 29 -9 40 -20z m-255 -213 c75 -75 73 -222 -4 -297 l-36 -35 -3 78
c-3 77 -2 80 33 122 39 48 42 60 20 68 -8 4 -23 -5 -35 -20 l-20 -26 0 32 c0
24 -4 31 -20 31 -18 0 -20 -7 -20 -77 l0 -78 -21 32 c-12 20 -26 30 -35 26
-21 -8 -18 -17 22 -77 25 -37 35 -63 32 -83 l-3 -28 -36 35 c-77 75 -79 222
-4 297 45 45 85 45 130 0z m-195 -14 c0 -5 -5 -15 -10 -23 -8 -13 -13 -12 -32
8 l-22 22 32 0 c18 0 32 -3 32 -7z m-21 -200 c16 -63 54 -118 97 -138 33 -16
34 -18 34 -75 l0 -60 -40 0 c-37 0 -40 2 -30 19 33 62 -20 141 -94 141 -13 0
-26 4 -28 8 -1 5 -25 20 -53 34 -48 24 -50 26 -53 71 l-3 47 79 0 80 0 11 -47z
m349 -93 c13 0 32 5 43 10 18 10 19 7 19 -44 l0 -55 -36 24 c-20 14 -48 25
-61 25 -33 0 -80 -26 -87 -48 -4 -10 -17 -34 -31 -52 l-25 -34 0 57 c0 54 1
57 35 73 20 9 45 29 56 45 19 27 22 28 42 14 12 -8 32 -15 45 -15z m-517 2
c13 -11 36 -22 51 -26 15 -3 32 -15 38 -26 8 -15 17 -18 39 -14 21 5 34 1 50
-15 25 -25 27 -49 5 -79 -14 -21 -21 -22 -164 -22 -148 0 -150 0 -166 25 -21
32 -11 72 21 87 14 6 25 19 25 30 0 23 35 58 59 58 10 0 29 -8 42 -18z m517
-100 c10 -10 26 -22 36 -25 10 -4 20 -16 23 -27 4 -15 11 -18 33 -14 15 4 31
1 34 -5 5 -8 -32 -11 -126 -11 -113 1 -130 3 -115 14 9 7 17 21 17 30 0 22 36
56 60 56 11 0 28 -8 38 -18z m297 -142 c0 -12 -25 -16 -143 -20 -127 -4 -145
-7 -158 -24 -8 -11 -14 -28 -14 -38 0 -11 -7 -18 -20 -18 -13 0 -20 -7 -20
-20 0 -17 8 -19 88 -22 69 -2 87 -6 87 -18 0 -13 -52 -15 -405 -15 -353 0
-405 2 -405 15 0 12 15 16 68 18 58 3 67 5 67 22 0 18 -9 20 -147 22 -124 3
-148 5 -148 18 0 10 12 16 35 18 67 5 81 12 96 47 l14 35 503 -2 c438 -3 502
-5 502 -18z"/>
<path d="M360 200 c0 -17 7 -20 40 -20 28 0 40 -4 40 -14 0 -28 30 -46 76 -46
37 0 44 3 44 20 0 17 -7 20 -40 20 -28 0 -40 4 -40 14 0 28 -30 46 -76 46 -37
0 -44 -3 -44 -20z"/>
</g>
</svg>
