<?xml version="1.0" standalone="no"?>
<!DOCTYPE svg PUBLIC "-//W3C//DTD SVG 20010904//EN"
 "http://www.w3.org/TR/2001/REC-SVG-20010904/DTD/svg10.dtd">
<svg version="1.0" xmlns="http://www.w3.org/2000/svg"
 width="128.000000pt" height="128.000000pt" viewBox="0 0 128.000000 128.000000"
 preserveAspectRatio="xMidYMid meet">

<g transform="translate(0.000000,128.000000) scale(0.100000,-0.100000)"
fill="#000000" stroke="none">
<path d="M565 1241 c-72 -32 -125 -113 -125 -191 0 -55 23 -104 69 -149 38
-37 46 -51 40 -66 -4 -11 -8 -43 -8 -71 -1 -37 -10 -67 -32 -109 -29 -55 -30
-58 -12 -77 10 -11 28 -24 41 -29 12 -5 22 -17 22 -27 0 -28 21 -42 65 -42
l40 -1 -24 -19 c-13 -11 -29 -20 -36 -20 -15 0 -25 -22 -25 -52 0 -11 16 -36
35 -55 34 -34 38 -35 90 -30 53 5 55 5 55 -19 0 -44 -19 -63 -108 -108 -100
-50 -121 -69 -129 -120 l-6 -36 373 0 373 0 -6 40 c-7 56 -38 93 -112 134 -85
48 -105 75 -105 141 0 53 1 54 71 121 51 50 80 89 107 143 34 70 37 81 37 165
0 143 -48 244 -155 330 -75 60 -137 78 -288 85 -125 6 -135 8 -153 30 -10 13
-19 29 -19 37 0 19 -27 17 -75 -5z m72 -63 l34 -33 137 -6 c106 -5 147 -11
182 -27 197 -88 282 -305 193 -494 -27 -57 -133 -178 -155 -178 -5 0 -16 16
-25 36 -17 35 -17 37 2 53 54 43 68 97 40 150 -15 31 -33 41 -70 41 -18 0 -25
7 -30 28 -13 63 -109 141 -172 142 -20 0 -22 4 -17 30 9 40 -13 88 -47 105
-37 20 -49 19 -49 -3 0 -11 11 -24 25 -30 48 -22 41 -95 -10 -108 -89 -22
-195 69 -195 168 0 46 36 113 73 137 42 27 45 27 84 -11z m171 -340 c52 -16
89 -60 103 -126 7 -31 13 -58 14 -60 1 -1 17 5 34 15 31 17 32 17 46 -1 26
-34 18 -66 -26 -106 l-41 -37 28 -54 c21 -39 30 -75 34 -129 4 -41 8 -81 11
-89 6 -20 -76 -60 -136 -67 -74 -8 -87 5 -78 81 7 52 11 60 33 65 16 4 26 14
28 28 2 12 2 22 0 22 -2 0 -35 -9 -73 -20 -88 -25 -120 -25 -145 0 -24 24 -26
50 -5 50 27 0 65 47 65 80 0 29 -1 30 -50 30 -49 0 -50 1 -50 30 0 25 -4 30
-24 30 -43 0 -49 22 -21 75 18 35 25 63 25 104 0 74 9 86 62 83 24 -1 50 2 58
7 15 10 51 6 108 -11z m360 -704 c2 -1 -14 0 -37 3 -62 8 -109 -5 -150 -43
l-38 -34 -192 0 c-184 0 -191 1 -182 19 6 10 47 38 92 61 l82 43 42 -23 c54
-29 119 -24 201 18 l58 29 60 -35 c34 -19 62 -36 64 -38z m0 -51 l37 -17 -52
-4 c-29 -2 -77 -2 -105 0 l-53 3 35 17 c45 22 91 22 138 1z"/>
<path d="M627 734 c-10 -10 21 -50 49 -62 31 -15 56 -15 88 -1 38 18 22 42
-23 34 -29 -5 -43 -1 -63 14 -27 22 -40 25 -51 15z"/>
<path d="M92 740 c-70 -43 -92 -128 -49 -191 41 -61 70 -69 265 -69 165 0 172
1 172 20 0 19 -7 20 -170 20 -110 0 -178 4 -195 12 -29 13 -55 55 -55 88 0 58
61 109 115 96 59 -15 55 -100 -5 -112 -21 -5 -30 -12 -30 -25 0 -40 87 -11
108 36 45 99 -60 183 -156 125z"/>
<path d="M191 426 c-87 -48 -50 -186 49 -186 26 0 60 34 60 60 0 11 -9 29 -20
40 -11 11 -29 20 -40 20 -27 0 -27 -36 1 -43 24 -6 21 -30 -4 -35 -21 -4 -57
33 -57 58 0 11 9 29 20 40 18 18 33 20 150 20 123 0 130 1 130 20 0 19 -7 20
-132 20 -91 -1 -141 -5 -157 -14z"/>
</g>
</svg>
