<svg xmlns="http://www.w3.org/2000/svg" width="448" height="426.667" version="1.0"
  viewBox="0 0 336 320">
  <path
    d="M148.1 17c-9.8 2.6-28 11.5-35.7 17.3C98.8 44.6 87.1 59.8 81.2 75c-1.8 4.8-3 7-2.7 5 .6-3.4.5-3.5-.8-1-3.3 5.7-5.8 19.4-6.4 34.1-.5 13.7-.4 15.1 2.1 23.9 5.1 17.9 13.1 32.3 24.8 44.6 3.7 3.9 6.5 7.3 6.3 7.6-.3.3.3 1.1 1.2 1.9 1.6 1.2 1.7 1.2.8-.1-.5-.9.1-.4 1.5 1s2.3 2.1 2 1.5c-.3-.6.6.1 2 1.6 3.3 3.5 21.2 12.1 32.5 15.6 8.2 2.5 10.4 2.7 25.5 2.8 13.2 0 17.9-.4 23.5-1.9 28.4-7.8 49.5-24.7 61.2-49.2 6.1-12.9 8.3-22.3 8.3-35.5 0-5.9-.4-11-.9-11.3-1.3-.8-2.1 3-2.1 10.1 0 6.9-3 15.7-10.5 30.9-4.3 8.7-8.5 14.3-8.5 11.4 0-.7-3.7 2.5-8.2 7.2-7.4 7.6-9.5 9.1-19.8 14.2-6.3 3.1-13.9 6.1-16.9 6.6-7 1.3-26.8 1.3-35.1 0-7.8-1.2-23.2-5.6-27.8-7.9-3.3-1.6-14.3-12.1-12.8-12.1.5 0 .1-.9-.9-2s-2.1-1.7-2.5-1.5c-1 .6-8.1-7.3-13.2-14.8-5.6-8.2-10.9-19.7-10.2-22 .4-1.4.3-1.7-.7-1.2-.9.6-1.1.2-.7-1.3.4-1.2.2-2.2-.3-2.2s-1-1.5-1-3.3c-.1-1.8-.3-2.4-.6-1.4-1.2 4.7 7.9 34.6 12.3 40.4 1.4 1.8 4.4 4.6 6.7 6 2.3 1.4 6.6 4.8 9.5 7.4 2.9 2.7 8 6.5 11.4 8.6 6.8 4.2 5.8 5.8-1.4 2.2-11.7-5.9-31.8-24.7-38.6-36.2-5.3-8.9-9.9-20.5-11.8-29.6-1.8-9.4-1.5-30.6.6-37.4 1.7-5.8 2-4 .4 2.8-2.4 10.2-1.2 31.1 2.5 43 .8 2.7.9 2.4 1-2.5.1-3 .9-10.2 1.8-16 .8-5.8 1.7-12.8 1.8-15.5.1-2.8.3-6.7.4-8.8 0-2 .9-4.5 1.9-5.5.9-.9 3.2-3.7 5-6.2 1.7-2.4 3.2-4 3.2-3.5 0 .4 1.8-1.8 4.1-5.1 2.3-3.2 5-6.9 6.2-8.1 1.1-1.3 1.8-2.5 1.5-2.8-.5-.5-6.9 6.6-12.2 13.8-1.6 2.1-3 3.6-3.3 3.4-.6-.6 3.7-13.7 5.5-16.6 1.8-3 6.9-7.3 22.8-19.3 7.7-5.9 11.9-8.3 17.8-10.3 4.3-1.4 8.3-2.4 8.9-2.1.9.3.8.5 0 .5-.7.1-1.3.6-1.3 1.2 0 1.3 5.7.2 8.5-1.7 1.4-1 1.6-1.4.5-1.5-2-.1 3.9-1.6 11.8-2.9 4.4-.7 8.1-.7 13 .1 3.7.6 9.7 1.2 13.3 1.4 3.7.1 7.8.9 9.1 1.6 10.3 5.7 13.1 7 13.6 6.4 1.1-1.1-5.9-6.4-13.3-10.1-10.8-5.3-21-7.6-35.5-8-10.2-.3-13.9 0-19.9 1.6zm5.2 10.7c-.7.2-1.9.2-2.5 0-.7-.3-.2-.5 1.2-.5s1.9.2 1.3.5zM82 141c1.1 2.9 1.9 5.4 1.7 5.6-.7.7-5.7-11.1-6.7-15.6-1.6-7.6-1-8.9 1-1.9 1.1 3.6 2.8 9 4 11.9zm37.1 33.7c1.3 1.6 1.2 1.7-.3.4-1.7-1.3-2.2-2.1-1.4-2.1.2 0 1 .8 1.7 1.7zm21.2 19.5c1.2.6 5.1 2.2 8.7 3.5 6.1 2.2 6.2 2.3 2 1.7-6.3-.9-12.2-2.8-12-3.8.1-.5-.4-1.3-1.2-1.7-2-1.3 0-1.1 2.5.3zm29 5.5c-.7.2-2.1.2-3 0-1-.3-.4-.5 1.2-.5 1.7 0 2.4.2 1.8.5zm-10 1c-.7.2-1.9.2-2.5 0-.7-.3-.2-.5 1.2-.5s1.9.2 1.3.5z" />
  <path
    d="M157.2 32.6c-3.5 1.5-6.1 2.8-5.9 3.1.2.2 2.6-.2 5.3-.8 2.7-.6 10.5-1.2 17.4-1.2 12.3-.1 12.4-.1 7-1.3-11.6-2.7-17-2.6-23.8.2zM185.9 31.6c1.9.8 7.5 2.8 12.5 4.5 5 1.6 11.3 4.3 14 6 6.3 3.9 7.1 3.1.9-1-9-6-21.9-11.1-27.6-11.1l-3.2.1 3.4 1.5zM143.6 37.6c-2.2.8-4.8 1.2-5.7.9-2.9-1-16 5.1-20.9 9.7-3.6 3.3-4.1 4.3-2.7 4.6 1.4.3 1 1.3-2.6 6-4.5 5.8-10 14.2-9.4 14.2.2 0 2.8-3 5.7-6.6 8-9.8 25.7-23.7 35-27.4 7.5-2.9 8-4.1.6-1.4zM210.5 43.8c.6.5 3.5 2.6 6.5 4.6 6.5 4.2 14.7 12.2 22.6 21.7 3.2 3.7 6.1 6.6 6.5 6.3 2.5-1.5-5.2-16.4-11.3-21.9l-3.2-3 2.7 3.5c6.8 8.6 8.7 11.3 8.3 11.8-.8.7-4.8-2.6-14.1-11.6-6.6-6.4-10.3-9.2-14-10.5-2.7-1-4.5-1.4-4-.9zM161.5 79.1c-10.1 11.2-11.1 27.1-2.5 40.1 1.7 2.5 4.3 5.4 5.7 6.4l2.7 1.7 3.9-4.4c9.3-10.3 11.6-22.9 6.3-34.4-2.7-6-8.9-13.5-11.2-13.5-.6 0-2.8 1.9-4.9 4.1zM135 89.5c-1.9 6.6-.8 13.8 2.6 18.8 2.8 3.9 13.9 12.5 15 11.5.2-.3-.6-2.7-1.8-5.4-1.8-4-2.2-6.7-2.2-14.5v-9.7l-5.3-2.6c-2.9-1.4-5.7-2.6-6.2-2.6s-1.4 2-2.1 4.5zM190 88l-5.5 3v9.8c0 8.4-.3 10.4-2.6 15-1.4 2.8-2.3 5.2-2 5.2 1.8 0 12.9-9.6 15.3-13.1 2.8-4.2 4.8-9.7 4.8-13.4 0-3.6-2.1-9.5-3.3-9.5-.7 0-3.7 1.4-6.7 3zM87.1 96.6c0 1.1.3 1.4.6.6.3-.7.2-1.6-.1-1.9-.3-.4-.6.2-.5 1.3zM91.1 96.6c0 1.1.3 1.4.6.6.3-.7.2-1.6-.1-1.9-.3-.4-.6.2-.5 1.3zM251.2 96.5c0 1.1.4 3.1.8 4.5.6 2 .8 2.1.8.5 0-1.1-.4-3.1-.8-4.5-.6-2-.8-2.1-.8-.5z" />
  <path
    d="M120 102.3c0 11.6 6.6 21.6 16.6 25.1 4.8 1.7 23.4 3.5 23.4 2.3 0-.4-3.3-2.2-7.2-4.2-14.2-6.9-22.3-15.3-23.5-24.4-.6-4.1-.6-4.1-4.9-4.1H120v5.3zM204 99.2c0 7.9-11.2 20.6-23.6 26.8l-6.9 3.5 6.8.3c8.4.4 17.9-1.9 23.2-5.6 5.5-3.8 9.6-12 10.2-20.6l.6-6.6h-5.2c-4.6 0-5.1.2-5.1 2.2zM88.7 105.9c-2 8-2 10.3-.3 15.1 1.2 3.2 1.3 2.6 1.8-9 .3-6.9.4-12.6.3-12.8-.1-.1-.9 2.9-1.8 6.7zM252.1 113.6c0 1.1.3 1.4.6.6.3-.7.2-1.6-.1-1.9-.3-.4-.6.2-.5 1.3z" />
  <path
    d="M117.1 127.1c-2.4.5-4.6 1.1-4.9 1.3-.8.8 6.1 4.6 11.2 6.1 2.7.8 6.9 1.5 9.2 1.5h4.3l-1.5 2.7c-1.8 3.6-1.8 5.9.2 6.7 2.8 1.1 12.8.6 16.7-.8 3.7-1.4 3.8-1.3 5.2 1.4 1.5 2.9 7.9 9 9.5 9 1.7 0 7.7-6 8.9-8.9l1.2-2.8 5.1 1.4c4.7 1.4 16 1.5 17.3.1.3-.3-.1-2.4-.8-4.7l-1.5-4.1h4.4c2.4 0 6.5-.7 9.1-1.6 5-1.7 11.7-5.3 11-6-.2-.2-2.9-.9-5.9-1.4-5.3-1-5.8-.9-10.5 2-7.8 4.9-15.5 5.9-41.3 5.5-24.2-.3-28.7-1.1-36.1-5.9-4.2-2.8-4.2-2.8-10.8-1.5zM248.8 145.1c-9 18.5-20.5 31.2-37.3 41.3-7.4 4.4-6.3 4.8 1.4.5 13.6-7.7 31.3-25 32.6-32 .3-1.3 1.1-2.7 1.9-3.1 1.5-.8 8-16.4 7.4-17.7-.2-.4-2.9 4.5-6 11zM25 273.9c-4.5.8-8.7 3.7-10.6 7.2-1.8 3.6-1.8 11.7.1 16.3 2 4.7 5.2 6.7 12.3 7.3 9.5.9 17.1-4.3 14.8-10.3-1.1-2.8-4-1.1-5.2 3.1-.9 3.6-1.5 4-4.5 4.3-3.5.4-9.9-2.3-9.9-4.1 0-.6-.7-1.9-1.6-2.8-1.9-2.1-2.1-9-.4-13.3 1.2-3.2 6.9-5.9 10.5-5 1.4.3 3.4 1.9 4.6 3.5 1.1 1.6 2.5 2.9 3 2.9 1.3 0 1.1-4.1-.4-6.9-1.3-2.6-5.9-3.4-12.7-2.2zM141.1 273.9c-2.9.5-3.6 1.2-4.6 4.6-.7 2.2-2.4 6.4-3.8 9.4-1.5 3-2.7 6.2-2.7 7-.1 2.4-2.9-3.2-5.2-10.3-3.2-9.9-4-10.8-10-10.4-3 .2-5.3.8-5.6 1.5-.2.7.5 1.3 1.5 1.3 4.1.1 4.4 1 3.1 12-1.1 9.7-1.4 10.4-4 11.9-4.1 2.3-2.9 3.6 3.7 3.9 6.7.4 9.4-1.1 5-2.8l-2.8-1 .7-7.3c.4-3.9 1.1-7.6 1.6-8.1 1-1 5.3 7.1 6.9 13.1 1.4 5.1 3.6 7.2 4.9 4.6.5-1 1.2-3.3 1.6-5.1.7-3.9 5.7-15.2 6.7-15.2.9 0 1.9 6.5 1.9 12.6 0 4.5-.3 5.2-2.7 6.3-4.3 2-1.3 3.2 7.2 2.9 8.9-.3 10.6-1.8 5.1-4.4-3.2-1.6-3.5-2.1-4.1-7.3-1.8-17.1-1.8-16.1.2-16.1 1 0 2.5-.5 3.3-1 1.3-.9 1.3-1.1 0-2-1.6-1-2.7-1.1-7.9-.1zM158.5 275.1l-3 .6 2.6 1.1c3.5 1.4 3.8 3.8 3 22-.1 1.5-1 2.6-2.8 3.3-4.1 1.5-1.1 2.6 6 2.1 5.5-.4 7.3-1.6 4.2-2.8-1.7-.7-2.2-10.4-.6-10.4 1.4 0 6.2 6.1 7.7 9.6 1.1 2.7 2 3.3 5.9 3.8 6.6 1 9.2-1.3 3.6-3.2-1.6-.6-4.1-2.7-5.7-4.9-1.6-2.1-3.5-4.4-4.1-5.1-1.9-2-1.6-3 1.6-4.7 3.8-1.9 4.7-4.9 2.7-8-.9-1.4-2-2.5-2.4-2.6-11.3-1.1-16.3-1.3-18.7-.8zm14.5 3.8c1.9 3.7 1.2 7.6-1.6 9.2-2.3 1.2-2.7 1.2-4-.6-1.5-2-1.8-6.2-.8-8.9.9-2.2 5.1-2 6.4.3zM201.5 275.1c-1.7.4-4.6 2.4-6.5 4.4-2.9 3-3.4 4.3-3.7 9.2-.5 7.2 1.7 11.3 7.8 14.4 3.3 1.6 5.5 2 9.8 1.7 5-.5 5.9-.9 9.3-4.7 4.4-5 5.4-9.1 3.8-15.1-2.3-8.6-10.9-12.7-20.5-9.9zm9.7 4c2.8 1.5 4.8 7 4.8 13.4 0 7-2.8 10.5-8.5 10.5-4.5 0-9.4-4.4-9.6-8.7-.1-1.5-.3-4.2-.4-5.8-.2-3.8 1.1-7.6 3.2-9.3 2.1-1.5 7.7-1.6 10.5-.1zM239.5 275.1c-1.7.4-4.6 2.4-6.5 4.4-2.9 3-3.4 4.3-3.7 9.2-.5 7.2 1.7 11.3 7.8 14.4 3.3 1.6 5.5 2 9.8 1.7 5-.5 5.9-.9 9.3-4.7 4.4-5 5.4-9.1 3.8-15.1-2.3-8.6-10.9-12.7-20.5-9.9zm9.7 4c2.8 1.5 4.8 7 4.8 13.4 0 7-2.8 10.5-8.5 10.5-4.5 0-9.4-4.4-9.6-8.7-.1-1.5-.3-4.2-.4-5.8-.2-3.8 1.1-7.6 3.2-9.3 2.1-1.5 7.7-1.6 10.5-.1zM269.8 274.8c-4.7.3-4.8.4-4.8 3.8 0 3.9.3 4.1 2.7 1.5 1-1 3.2-2.1 4.8-2.5 5.3-1.1 5.9.1 6.3 12.7.4 10.9.3 11.4-1.7 12-4.2 1.1-1.9 2.5 4.7 2.9 7.7.4 9.7-.5 6.6-3-1.8-1.4-2.3-3.2-2.8-10.7-.3-5-.9-10-1.2-11.2-.5-1.8-.1-2.3 2.1-2.9 2.7-.7 5.1.2 9.3 3.3l2.3 1.6-.3-3.9-.3-3.9H286c-6.3 0-13.6.1-16.2.3zM306.2 276.3c-1.8 1.9-2.3 3.4-2 6.8.3 4 .8 4.7 5.6 8.3 4 3 5.2 4.5 5.2 6.5 0 5.6-6.3 7.1-9.8 2.3-1.8-2.4-2.1-2.5-2.8-.9-.8 2.3 1.9 5.3 5.4 6 4.4.9 10.1-1.3 11.8-4.4 3.2-6.2.9-11.5-6.8-15.5-3.2-1.7-4.3-4.6-2.8-7.4 1.4-2.7 3.6-2.5 6.2.5 2.9 3.4 4 3.1 3.6-.8-.3-3.1-.4-3.2-5.8-3.5-4.8-.2-5.9 0-7.8 2.1zM57.2 276.6c-1.2.8-2.2 2.5-2.2 3.7 0 4.6-5.3 18.2-8.1 20.8-1.6 1.5-2.5 2.9-2.2 3.3.9.8 9.8.8 10.7-.1.4-.4-.3-1.5-1.6-2.5-2.2-1.6-2.2-1.9-.8-4.5 1.3-2.3 2.4-2.9 5.7-3.1 4.1-.3 4.2-.2 4.9 3.4.5 2.9.3 3.9-1 4.6-.9.5-1.6 1.3-1.6 1.8 0 1.4 11.7 1.3 12.5-.1.4-.5-.5-2.1-1.9-3.4-1.4-1.3-2.6-3-2.6-3.7 0-.7-1.5-5.1-3.4-9.8-1.9-4.7-3.7-9.3-4-10.3-.7-2.1-1.5-2.1-4.4-.1zm3.2 9.1c.2 1 .7 2.8 1.1 4 .6 2 .3 2.3-2.5 2.3-3.6 0-4.5-1.6-3.1-5.3 1.2-3.1 3.7-3.6 4.5-1zM85.4 275.7l-5.2.4 1.3 4.2c1.2 4 1.2 14.6 0 19.4-.3 1.3-1.2 2.3-2.1 2.3-.9 0-1.4.6-1.1 1.2.3 1 3.5 1.3 11.6 1.3 10.5 0 11.3-.1 12.6-2.2.8-1.2 1.5-3.2 1.5-4.3 0-1.9-.3-1.9-3.9 1-2.9 2.4-4.7 3.1-7.2 2.8-4-.4-4.7-2.1-4.8-12.6-.1-7.8 1-11.2 3.5-11.2 1.6 0 1.5-2.3-.2-2.5-.5-.1-3.2 0-6 .2z" />
</svg>