<svg xmlns="http://www.w3.org/2000/svg" width="581.333" height="492" version="1.0" viewBox="0 0 436 369"><path d="M189.1 63c-9.8 2.6-28 11.5-35.7 17.3-13.6 10.3-25.3 25.5-31.2 40.7-1.8 4.8-3 7-2.7 5 .6-3.4.5-3.5-.8-1-3.3 5.7-5.8 19.4-6.4 34.1-.5 13.7-.4 15.1 2.1 23.9 5.1 17.9 13.1 32.3 24.8 44.6 3.7 3.9 6.5 7.3 6.3 7.6-.3.3.3 1.1 1.2 1.9 1.6 1.2 1.7 1.2.8-.1-.5-.9.1-.4 1.5 1s2.3 2.1 2 1.5c-.3-.6.6.1 2 1.6 3.3 3.5 21.2 12.1 32.5 15.6 8.2 2.5 10.4 2.7 25.5 2.8 13.2 0 17.9-.4 23.5-1.9 28.4-7.8 49.5-24.7 61.2-49.2 6.1-12.9 8.3-22.3 8.3-35.5 0-5.9-.4-11-.9-11.3-1.3-.8-2.1 3-2.1 10.1 0 6.9-3 15.7-10.5 30.9-4.3 8.7-8.5 14.3-8.5 11.4 0-.7-3.7 2.5-8.2 7.2-7.4 7.6-9.5 9.1-19.8 14.2-6.3 3.1-13.9 6.1-16.9 6.6-7 1.3-26.8 1.3-35.1 0-7.8-1.2-23.2-5.6-27.8-7.9-3.3-1.6-14.3-12.1-12.8-12.1.5 0 .1-.9-.9-2s-2.1-1.7-2.5-1.5c-1 .6-8.1-7.3-13.2-14.8-5.6-8.2-10.9-19.7-10.2-22 .4-1.4.3-1.7-.7-1.2-.9.6-1.1.2-.7-1.3.4-1.2.2-2.2-.3-2.2s-1-1.5-1-3.3c-.1-1.8-.3-2.4-.6-1.4-1.2 4.7 7.9 34.6 12.3 40.4 1.4 1.8 4.4 4.6 6.7 6 2.3 1.4 6.6 4.8 9.5 7.4 2.9 2.7 8 6.5 11.4 8.6 6.8 4.2 5.8 5.8-1.4 2.2-11.7-5.9-31.8-24.7-38.6-36.2-5.3-8.9-9.9-20.5-11.8-29.6-1.8-9.4-1.5-30.6.6-37.4 1.7-5.8 2-4 .4 2.8-2.4 10.2-1.2 31.1 2.5 43 .8 2.7.9 2.4 1-2.5.1-3 .9-10.2 1.8-16 .8-5.8 1.7-12.8 1.8-15.5.1-2.8.3-6.7.4-8.8 0-2 .9-4.5 1.9-5.5.9-.9 3.2-3.7 5-6.2 1.7-2.4 3.2-4 3.2-3.5 0 .4 1.8-1.8 4.1-5.1 2.3-3.2 5-6.9 6.2-8.1 1.1-1.3 1.8-2.5 1.5-2.8-.5-.5-6.9 6.6-12.2 13.8-1.6 2.1-3 3.6-3.3 3.4-.6-.6 3.7-13.7 5.5-16.6 1.8-3 6.9-7.3 22.8-19.3 7.7-5.9 11.9-8.3 17.8-10.3 4.3-1.4 8.3-2.4 8.9-2.1.9.3.8.5 0 .5-.7.1-1.3.6-1.3 1.2 0 1.3 5.7.2 8.5-1.7 1.4-1 1.6-1.4.5-1.5-2-.1 3.9-1.6 11.8-2.9 4.4-.7 8.1-.7 13 .1 3.7.6 9.7 1.2 13.3 1.4 3.7.1 7.8.9 9.1 1.6 10.3 5.7 13.1 7 13.6 6.4 1.1-1.1-5.9-6.4-13.3-10.1-10.8-5.3-21-7.6-35.5-8-10.2-.3-13.9 0-19.9 1.6zm5.2 10.7c-.7.2-1.9.2-2.5 0-.7-.3-.2-.5 1.2-.5s1.9.2 1.3.5zM123 187c1.1 2.9 1.9 5.4 1.7 5.6-.7.7-5.7-11.1-6.7-15.6-1.6-7.6-1-8.9 1-1.9 1.1 3.6 2.8 9 4 11.9zm37.1 33.7c1.3 1.6 1.2 1.7-.3.4-1-.7-1.8-1.5-1.8-1.7 0-.8.8-.3 2.1 1.3zm21.2 19.5c1.2.6 5.1 2.2 8.7 3.5 6.1 2.2 6.2 2.3 2 1.7-6.3-.9-12.2-2.8-12-3.8.1-.5-.4-1.3-1.2-1.7-2-1.3 0-1.1 2.5.3zm29 5.5c-.7.2-2.1.2-3 0-1-.3-.4-.5 1.2-.5 1.7 0 2.4.2 1.8.5zm-10 1c-.7.2-1.9.2-2.5 0-.7-.3-.2-.5 1.2-.5s1.9.2 1.3.5z"/><path d="M198.2 78.6c-3.5 1.5-6.1 2.8-5.9 3.1.2.2 2.6-.2 5.3-.8 2.7-.6 10.5-1.2 17.4-1.2 12.3-.1 12.4-.1 7-1.3-11.6-2.7-17-2.6-23.8.2zM226.9 77.6c1.9.8 7.5 2.8 12.5 4.5 5 1.6 11.3 4.3 14 6 6.3 3.9 7.1 3.1.9-1-9-6-21.9-11.1-27.6-11.1l-3.2.1 3.4 1.5zM184.6 83.6c-2.2.8-4.8 1.2-5.7.9-2.9-1-16 5.1-20.9 9.7-3.6 3.3-4.1 4.3-2.7 4.6 1.4.3 1 1.3-2.6 6-4.5 5.8-10 14.2-9.4 14.2.2 0 2.8-3 5.7-6.6 8-9.8 25.7-23.7 35-27.4 7.5-2.9 8-4.1.6-1.4zM251.5 89.8c.6.5 3.5 2.6 6.5 4.6 6.5 4.2 14.7 12.2 22.6 21.7 3.2 3.7 6.1 6.6 6.5 6.3 2.5-1.5-5.2-16.4-11.3-21.9l-3.2-3 2.7 3.5c6.8 8.6 8.7 11.3 8.3 11.8-.8.7-4.8-2.6-14.1-11.6-6.6-6.4-10.3-9.2-14-10.5-2.7-1-4.5-1.4-4-.9zM208.1 116.3c-4.9 2.5-4.3 9.2 1.1 11.1 3.7 1.3 7.8-1.4 7.8-5.2 0-5.3-4.5-8.2-8.9-5.9zm4.7 5.4c-.2 1-1 1.8-1.8 1.8s-1.6-.8-1.8-1.8c-.2-1.2.3-1.7 1.8-1.7s2 .5 1.8 1.7zM205.5 139.9c-1.9 3.8-4.2 9.7-5.1 13l-1.7 6-5.9-5.3c-7-6.4-13.8-10.2-16.3-9.2-1.6.6-1.7 1.5-1.1 8.4.3 4.3 1.3 10.5 2.1 13.7.9 3.2 1.4 6 1.1 6.2-.2.2-3 0-6.2-.6-8.4-1.6-14.3-1.4-15 .4-1.4 3.6 10.8 18.8 19.6 24.5 2.8 1.8 8.5 4.4 12.8 5.8 6.7 2.2 9.4 2.5 21.2 2.5 11.7 0 14.5-.3 21.1-2.5 12.8-4.2 21.3-11 29.5-23.2 5.2-7.9 4.5-9.1-5.4-8.3-4.2.4-9.2.9-10.9 1.3l-3.3.6 1.5-4.1c1.8-5.2 3.8-20.6 3-23.2-.4-1-1.4-1.9-2.4-1.9-2.5 0-10.9 5.5-16.2 10.7l-4.7 4.5-2.2-7.4c-3-9.9-7.8-18.8-10.1-18.8-1.3 0-2.9 2.1-5.4 6.9zm8.5 5.3c3.7 8.5 5 14.7 5 23.8 0 4.7-.6 10.7-1.4 13.5-1.6 6.2-5.6 15.5-6.6 15.5-.9 0-5.5-10.2-7.1-16-.7-2.5-1.2-8.3-1.2-13 0-4.7.5-10.5 1.2-13 1.6-5.8 6.2-16 7.1-16 .4 0 1.8 2.4 3 5.2zm-28.7 7.7c2.3 1.6 6.1 4.9 8.3 7.3 4 4.2 4.2 4.6 4.7 12.3.3 4.6 1.5 11.2 3 15.5 1.4 4.1 2.3 7.7 2.1 7.9-.9.9-13.1-12.1-16.2-17.2-3.4-5.7-7.2-18.7-7.2-24.9 0-2.1.3-3.8.6-3.8s2.4 1.3 4.7 2.9zm56.7.4c0 4.9-3.5 17.8-6.4 23.5-2.6 5.1-10.9 14.9-15.5 18.1l-2.7 1.9 2.9-8.6c1.7-4.9 3.1-11.8 3.4-16.1.5-6.8.9-8 3.7-11 3.8-4.1 12.4-11.1 13.7-11.1.5 0 .9 1.5.9 3.3zm-65 24.1c3 .8 5.6 1.9 5.8 2.5 1 3 9.8 13.3 14.2 16.7 2.8 2.1 4.7 4 4.1 4.2-1.6.5-13.3-2.9-18-5.3-5.8-2.9-12.7-8.9-16.9-14.9l-3.3-4.6h4.3c2.4 0 6.8.6 9.8 1.4zm81-.7c0 .5-1.9 3.3-4.3 6.3-7 9-18 15.3-30 17.4l-3.9.7 7.1-6.6c3.9-3.7 8.3-8.7 9.8-11.1 2.2-3.5 3.7-4.8 7.3-5.9 4.8-1.5 14-2 14-.8z"/><path d="M213.5 167.2c-1.1 3.2-.9 14.1.2 14.5 1.8.7 3.3-4 3.3-10.3 0-4.2-.3-5.4-1.5-5.4-.9 0-1.8.6-2 1.2zM210.4 185.5c-.9 2.3.3 4.5 2.1 3.9 2-.8 2-5.4 0-5.4-.9 0-1.8.7-2.1 1.5zM189 136c-2.5 2.5-2.5 5.1-.2 8 3.5 4.3 11.2 1.5 11.2-4.1 0-2.7-3.5-5.9-6.5-5.9-1.4 0-3.4.9-4.5 2zm6 4c0 1.1-.7 2-1.5 2s-1.5-.9-1.5-2 .7-2 1.5-2 1.5.9 1.5 2zM224 136c-4 4-1.2 10.2 4.7 10.2 3.6 0 6.6-3.7 5.8-7.1-1.2-5.1-6.8-6.8-10.5-3.1zm5.8 4.3c.2 1-.3 1.7-1.2 1.7-1.8 0-2.9-1.6-2.1-3.1.9-1.4 2.9-.6 3.3 1.4zM128.1 142.6c0 1.1.3 1.4.6.6.3-.7.2-1.6-.1-1.9-.3-.4-.6.2-.5 1.3zM132.1 142.6c0 1.1.3 1.4.6.6.3-.7.2-1.6-.1-1.9-.3-.4-.6.2-.5 1.3zM292.2 142.5c0 1.1.4 3.1.8 4.5.6 2 .8 2.1.8.5 0-1.1-.4-3.1-.8-4.5-.6-2-.8-2.1-.8-.5zM129.7 151.9c-2 8-2 10.3-.3 15.1 1.2 3.2 1.3 2.6 1.8-9 .3-6.9.4-12.6.3-12.8-.1-.1-.9 2.9-1.8 6.7zM293.1 159.6c0 1.1.3 1.4.6.6.3-.7.2-1.6-.1-1.9-.3-.4-.6.2-.5 1.3zM289.8 191.1c-9 18.5-20.5 31.2-37.3 41.3-7.4 4.4-6.3 4.8 1.4.5 13.6-7.7 31.3-25 32.6-32 .3-1.3 1.1-2.7 1.9-3.1 1.5-.8 8-16.4 7.4-17.7-.2-.4-2.9 4.5-6 11zM29.6 288.8c-.4.4-3.4.7-6.6.7-6.9.1-9.6 1.9-10.6 7.3-1 5.3 1.8 9.6 8.2 12.8 2.9 1.4 5.8 3.2 6.4 3.9 1.8 2.2.7 6.6-2.1 8.8-2.3 1.6-3.2 1.8-6 .8-2.1-.7-4.1-2.4-5.2-4.3-1.5-2.5-2-2.9-2.8-1.7-1.3 2.1-1.1 5.5.6 6.9.8.7 4.3 1.4 7.7 1.7 5.8.4 6.6.2 9.6-2.4 7.1-6 4.7-14-5.8-19.3-5.5-2.8-6-3.3-6-6.3 0-4.2 1.5-5.7 5.6-5.7 2.4 0 3.9.8 5.8 3.1 1.4 1.7 2.7 2.7 2.7 2.2 1-5.9.2-10.3-1.5-8.5zM180 289.5c.7.8 1.8 1.5 2.6 1.5 3.2 0 3.9 2.5 3.6 13.3-.2 5.9-.7 10.7-1.2 10.7s-4.4-4.2-8.8-9.3c-15-17.7-13.8-16.7-20.4-16.7-3.2 0-5.8.3-5.8.7.1.5 2 1.7 4.3 2.8 4.1 2 4.2 2.1 4.5 7.5.9 13.9-1.3 22.6-5.9 24.2-2.7 1-.3 1.6 7.1 1.9 6.1.3 7.5.1 7.5-1.1 0-.8-1-1.6-2.3-1.8-4-.6-5-3.8-4.9-15 0-5.6.4-10.2.8-10.2.5 0 2.1 1.6 3.6 3.6 3.7 4.9 21.5 24.4 22.2 24.4.3 0 .7-5.3.8-11.8 0-6.4.3-13.7.6-16.2s.6-4.8.6-5.3c.1-.4 1.3-1.2 2.7-1.7 4.1-1.6 2-2.7-5.7-2.8-6.2-.1-7 0-5.9 1.3zM332.1 289c-4.1 1-7.6 3.5-11.4 8.3-2.6 3.1-3 4.4-3 9.9 0 4.7.5 7.2 2.2 9.9 6.2 10.3 20.7 12.6 29.7 4.7 10.1-8.9 9.6-21.7-1.2-30.2-4-3.2-10.2-4.2-16.3-2.6zm7.2 2.4c2.1.7 4.7 2.1 5.7 3.2 3 3 5.9 11.8 5.3 16.1-1 7.7-4.5 11.6-11.5 12.8-8.2 1.5-15.3-7.5-15.3-19.1 0-5.6.4-6.7 3-9.5 4.7-4.9 7-5.6 12.8-3.5zM384.8 288.7c-4.6.4-6.9 2.3-2.9 2.3 1.1 0 2.3.5 2.6 1.1 1.2 1.9-5.2 23.2-6.8 22.6-1.3-.4-6.7-16.5-6.7-19.9 0-2.1.5-2.8 2-2.8 1.1 0 2-.7 2-1.6 0-1.2-1.1-1.5-5.2-1.3-2.9.1-6.5.4-8.1.6l-2.7.5 2.7 2.6c1.9 1.8 3.8 5.8 5.7 11.7 1.6 4.9 3.3 9.9 3.8 11 .5 1.1 1.5 4 2.2 6.5 1.6 5.4 3.7 5.8 4.9 1 .9-3.6 2.7-8.4 5.9-15.7 1-2.3 1.8-4.6 1.8-5.1 0-1.8 4.1-10.2 5-10.3.6-.1 1.5-.2 2.2-.3 2.2-.2 1.9-2.3-.4-3-1.3-.3-2.5-.5-2.8-.4-.3.1-2.6.3-5.2.5zM75 290c0 .5.6 1 1.4 1 3.4 0 4.1 3 3.8 15.9-.3 14.5-.6 15.7-3.2 16.4-1.1.3-2 1.1-2 1.7 0 .9 1.3 1 4.3.6 2.3-.3 5.7-.2 7.5.3 3.4 1 6.2.6 6.2-1 0-.5-.7-.9-1.5-.9s-2.6-.5-4-1.2c-2.4-1.1-2.6-1.5-2.3-7.2.3-5.4.5-6.1 2.5-6.4 2.6-.4 5.9 2.8 10.9 10.6 1.9 2.9 4.4 5.6 5.7 6.1 1.2.4 10.9.6 21.5.3 21-.5 20.1-.2 21.6-6.7l.8-3-3.7 3.8c-3.1 3.2-4.2 3.7-8.3 3.7-7.1 0-9.2-1.9-9.2-8.5 0-3 .4-5.6.9-6 .6-.3 2.8-.2 5.1.1 3.2.5 4.4 1.3 5.1 3.2 1.4 3.6 2 2.3 2.3-4.7.3-6.5-.4-7.6-2.2-3.7-.8 1.7-2.2 2.7-4.7 3.2-5.1.9-6.5-.7-6.5-7.6 0-7.2 1.2-8.4 7.5-7.5 3.4.6 5.1 1.5 7 3.9l2.5 3.1v-3c0-5.4-.6-5.6-15.3-5.8-8.4-.1-13.8.2-13.9.8-.2.5.9 1.1 2.5 1.3 1.5.2 3.2 1.2 3.7 2.3 1.2 2.1.8 24.8-.4 26.7-.4.7-1.8 1.2-3.1 1.2s-2.7.4-3 1c-1.5 2.4-8.2-3.4-14.3-12.4l-2.6-3.8 2.7-2c5.7-4.2 4.2-12.4-2.8-15.4-4-1.6-22.5-2-22.5-.4zm20.2 3.7c4.1 3.6 2 10.4-3.7 12.3-6 2-6.9 1-6.2-6.7.4-3.7 1.2-7 1.9-7.4 1.6-1 5.8-.1 8 1.8zM247.6 290.2c-5 1.4-11.3 7.9-12.2 12.4-2.6 14.1 5.4 23.5 20 23.4 3.6-.1 7.5-.8 9.6-1.8 3.2-1.6 3.5-2.1 3.8-6.5.3-4 .7-5 2.8-5.9 4.1-1.9 2.7-2.7-4.2-2.6l-6.6.1.7 3.1c1.3 6.2 1.1 7.8-1.7 9.9-3.5 2.6-8.1 1.7-13.1-2.6-8.1-7-7.5-20.6 1.3-26.5 2.8-1.9 4.4-2.3 8-1.9 4.4.5 6.5 2.2 9.6 7.3 1.8 3 2.6 1.1 1.8-4.5-.5-4.3-1-5.1-2.3-4.5-.9.3-2 .6-2.6.5-.5 0-3.2-.3-6-.5-2.7-.3-6.7 0-8.9.6zM277 289.4c0 .3 1.4 1.2 3 2.1l3 1.6-.1 12.7c-.1 15.4-.4 16.9-3.5 17.6-4.5 1.2-2.4 2.3 4.4 2.4 3.7 0 7.6.2 8.6.4 3.3.5 2.8-1.9-.6-2.8-3.3-1-3.3-1-3.6-7.7-.3-6.5-.2-6.7 2.1-6.7 2.6 0 6.2 3.4 9.9 9.5 3.7 5.8 6.2 7.7 11.3 8.2 5.3.6 5.9-.7 1.6-3.3-1.7-1-5.3-4.8-8.1-8.6l-5.2-6.7 3.1-2.7c2.8-2.4 3.2-3.2 2.9-7.2-.5-7.2-3.2-8.6-17.4-9-6.3-.2-11.4-.1-11.4.2zm18.5 3c6.5 2.7 5.6 11.7-1.4 13.6-5.4 1.5-5.9 1.3-6.3-2.9-.4-5 .6-10.1 2.4-11.2 1.7-1.1 1.3-1.1 5.3.5zM37.3 291.3c.2.7 1.7 1.4 3.3 1.7 2.6.5 3 1 3.5 5.5.7 5.3.2 22.2-.7 23.7-.3.4-1.8.8-3.5.8-1.8 0-2.9.5-2.9 1.4 0 2.1.6 2.1 16.7 1.6l14.7-.5 1.2-4.3c.7-2.3 1.1-4.2.9-4.2-.1 0-1.9 1.6-3.8 3.5-3.1 3.1-4.1 3.5-8.4 3.5-6.5 0-8.3-1.9-8.3-8.9 0-3.5.5-5.3 1.4-5.7 2.5-1 8.1 1.1 9.1 3.4 1.7 3.8 2.5 2.4 2.5-4.6-.1-6.5-.1-6.6-1.5-4-1.6 2.8-6.9 4.6-10 3.4-2.1-.8-2.1-12.8 0-14.6 2.5-2.1 9.6-.3 12.8 3.3l2.8 3.2-.6-4c-.4-2.2-.8-4.1-1-4.3-.1-.1-6.6-.4-14.4-.7-10.5-.2-14.1 0-13.8.8zM197.6 290.7c-1 1.1.5 2.3 2.9 2.3 1.4 0 2.9.9 3.5 2 1.3 2.4.8 25.6-.6 27-.5.4-2 1-3.3 1.2-1.4.1-2.6.9-2.9 1.5-.3 1 3.2 1.3 15.2 1.3 17 0 16.4.2 18-6.5l.8-3-3.7 3.8c-3.1 3.2-4.2 3.7-8.3 3.7-7.1 0-9.2-1.9-9.2-8.5 0-3 .4-5.6.9-6 .6-.3 2.8-.2 5.1.1 3.2.5 4.4 1.3 5.1 3.2 1.4 3.6 2 2.3 2.3-4.7.3-6.5-.4-7.6-2.2-3.7-.8 1.7-2.2 2.7-4.7 3.2-5.1.9-6.5-.7-6.5-7.6 0-7.2 1.2-8.4 7.5-7.5 3.4.6 5.1 1.5 7 3.9l2.5 3.1v-3c0-5.3-.6-5.6-15.2-6-7.5-.2-13.9-.1-14.2.2zM396.3 291.4c.2.6 1.3 1.2 2.5 1.4 3.7.6 4.3 2.5 4.3 15.2 0 13-.6 15-4.7 15-2.6 0-4 1.5-2.4 2.5 1.5.9 30.3.6 31.2-.3.3-.4 1-2.4 1.3-4.5l.7-3.7-3.5 3.5c-3.1 3.1-4.1 3.5-8.4 3.5-2.7 0-5.6-.6-6.5-1.3-2.2-1.7-3.3-11.1-1.4-12.6 2.3-1.9 8.5-.3 9.8 2.5 1.9 4.1 2.8 2.7 2.8-4.1 0-6.9-.5-8-2-4.1-1.2 3.3-8.7 4.7-10.7 2-1.2-1.6-1.1-8.9.2-13.2 1-2.9 11.5-.3 13.5 3.3 1.9 3.6 2.6 3.1 2.2-1.5-.4-3.8-.5-4-4.1-4.1-2 0-8.5-.2-14.4-.4-7.8-.2-10.7 0-10.4.9z"/></svg>